<?xml version="1.0" standalone="no"?>
<!DOCTYPE svg PUBLIC "-//W3C//DTD SVG 20010904//EN"
 "http://www.w3.org/TR/2001/REC-SVG-20010904/DTD/svg10.dtd">
<svg version="1.0" xmlns="http://www.w3.org/2000/svg"
 width="2362.000000pt" height="2362.000000pt" viewBox="0 0 2362.000000 2362.000000"
 preserveAspectRatio="xMidYMid meet">

<g transform="translate(0.000000,2362.000000) scale(0.100000,-0.100000)"
fill="#000000" stroke="none">
<path d="M7735 16434 c-1093 -88 -1872 -449 -2237 -1037 -300 -484 -313 -1062
-38 -1752 49 -124 170 -370 233 -474 31 -52 57 -96 57 -99 0 -12 221 -335 321
-468 100 -133 306 -384 315 -384 2 0 -39 62 -90 138 -404 596 -588 1100 -587
1607 1 775 518 1354 1450 1621 462 133 1023 190 1625 164 305 -13 795 -57 907
-81 25 -6 88 -16 140 -24 135 -19 388 -68 549 -105 52 -12 122 -27 155 -35
102 -22 198 -46 245 -60 25 -7 106 -30 180 -50 980 -266 2164 -769 3110 -1323
591 -345 1235 -794 1620 -1127 63 -55 128 -111 145 -125 139 -118 468 -439
615 -597 128 -139 279 -318 373 -443 23 -30 45 -57 48 -60 10 -9 166 -235 222
-322 117 -183 240 -420 318 -615 5 -13 13 -33 18 -45 5 -13 16 -39 25 -60 9
-20 16 -40 16 -45 0 -5 9 -39 20 -74 11 -35 25 -82 31 -104 6 -22 15 -50 19
-61 5 -12 18 -91 30 -175 28 -197 25 -457 -8 -614 -161 -775 -863 -1275 -2017
-1435 l-130 -18 205 -1 c194 0 245 3 485 28 563 61 1112 239 1480 479 260 170
484 412 608 657 125 247 179 538 158 843 -15 198 -40 347 -80 472 -5 14 -21
63 -36 110 -15 47 -30 94 -35 105 -4 11 -26 65 -48 120 -22 55 -58 136 -80
180 -21 44 -41 85 -43 90 -25 65 -187 337 -287 485 -75 109 -285 396 -301 410
-4 3 -38 43 -76 90 -421 516 -1105 1137 -1795 1632 -453 324 -981 654 -1480
925 -41 22 -102 55 -135 73 -33 18 -176 91 -318 162 -1290 645 -2651 1101
-3902 1307 -429 70 -561 86 -1045 121 -181 14 -757 10 -955 -6z"/>
<path d="M8280 15330 c-692 -32 -1263 -201 -1639 -486 -319 -241 -497 -545
-555 -949 l-5 -40 61 70 c71 80 208 215 219 215 4 0 14 6 21 13 37 36 184 135
263 178 52 29 196 99 202 99 3 0 24 8 47 19 81 36 117 51 129 51 7 1 30 9 52
20 22 11 49 19 60 20 12 0 25 4 30 9 6 5 42 16 80 24 39 9 106 25 150 37 192
49 481 94 730 112 222 16 725 22 805 9 36 -6 144 -15 240 -20 180 -11 319 -24
425 -41 33 -6 114 -17 180 -25 66 -9 134 -20 150 -25 17 -5 59 -12 95 -16 36
-4 70 -10 75 -14 6 -4 37 -11 69 -15 33 -4 71 -11 85 -17 14 -5 59 -16 101
-23 41 -8 116 -24 165 -35 50 -12 113 -25 140 -31 28 -5 59 -14 70 -19 11 -5
47 -16 80 -24 33 -8 85 -22 115 -30 30 -9 82 -23 115 -31 33 -9 69 -20 80 -25
11 -4 38 -13 60 -18 22 -6 54 -15 70 -21 17 -6 113 -38 215 -71 102 -33 192
-64 200 -69 9 -5 31 -12 49 -16 18 -4 54 -16 80 -27 62 -26 77 -32 141 -56
117 -43 196 -73 215 -82 26 -12 112 -49 150 -65 17 -7 58 -24 91 -39 34 -14
67 -26 73 -26 6 0 11 -4 11 -10 0 -5 6 -10 14 -10 8 0 54 -19 103 -41 48 -23
126 -59 173 -81 114 -54 374 -182 380 -188 3 -3 30 -17 60 -32 30 -16 62 -32
70 -38 18 -11 148 -83 245 -135 39 -21 72 -42 73 -46 2 -5 8 -9 14 -9 6 0 35
-16 64 -35 29 -19 55 -35 58 -35 5 0 112 -65 188 -115 8 -5 35 -23 59 -39 81
-52 124 -81 129 -86 3 -3 39 -27 80 -54 71 -46 359 -253 370 -265 3 -4 23 -19
45 -36 22 -16 45 -33 50 -37 6 -5 35 -28 67 -52 31 -23 63 -49 72 -57 15 -14
62 -55 181 -159 92 -80 181 -161 231 -208 25 -23 50 -40 56 -36 7 4 8 3 4 -4
-4 -7 28 -47 81 -100 48 -49 116 -120 150 -158 65 -72 76 -85 151 -173 26 -30
57 -63 69 -74 12 -11 20 -24 17 -29 -3 -4 -1 -8 3 -8 5 0 16 -12 25 -27 9 -16
27 -39 40 -53 13 -14 33 -40 43 -57 11 -18 23 -33 27 -33 4 0 8 -6 8 -14 0 -8
3 -16 8 -18 9 -4 82 -106 82 -115 0 -3 6 -14 14 -22 7 -9 24 -36 37 -61 13
-25 31 -53 40 -63 9 -10 29 -43 45 -75 15 -31 31 -59 34 -62 6 -5 16 -26 62
-130 11 -25 29 -65 40 -90 11 -25 25 -56 30 -70 6 -14 14 -32 18 -41 5 -9 12
-33 15 -53 4 -20 11 -39 16 -42 5 -3 9 -16 9 -30 0 -13 4 -32 9 -42 9 -17 19
-52 40 -143 5 -25 18 -117 27 -205 27 -262 -1 -470 -96 -709 -46 -118 -54
-135 -62 -135 -5 0 -8 -5 -8 -11 0 -13 -84 -143 -111 -172 -12 -12 -33 -37
-48 -56 -108 -142 -355 -329 -581 -442 -49 -24 -83 -40 -207 -95 -17 -8 -37
-14 -45 -14 -8 0 -18 -3 -22 -7 -4 -4 -32 -15 -64 -26 -177 -58 -309 -92 -487
-126 -88 -18 -164 -34 -170 -36 -17 -9 204 5 340 20 554 63 1024 202 1400 415
54 30 195 123 222 146 12 11 47 39 79 64 79 63 236 231 229 248 -2 7 -1 10 5
7 28 -17 194 283 244 441 50 161 58 234 53 482 -5 225 -10 289 -27 327 -5 11
-11 34 -14 50 -5 31 -47 185 -61 220 -4 11 -23 63 -42 115 -44 119 -53 138
-75 172 -10 14 -18 33 -18 42 0 9 -3 16 -7 16 -5 0 -17 21 -27 48 -11 26 -22
49 -25 52 -6 5 -54 93 -75 137 -6 13 -14 23 -18 23 -5 0 -8 7 -8 15 0 8 -4 15
-10 15 -5 0 -10 7 -10 15 0 8 -4 15 -8 15 -4 0 -21 26 -37 57 -17 32 -58 94
-91 139 -34 45 -73 99 -87 120 -14 21 -33 48 -44 59 -10 11 -32 38 -48 60 -17
22 -32 42 -35 45 -3 3 -28 32 -55 65 -80 96 -97 115 -150 173 -137 149 -259
275 -331 341 -32 30 -100 93 -149 140 -50 47 -113 104 -140 126 -27 22 -59 50
-70 62 -40 43 -402 325 -579 451 -175 125 -421 292 -429 292 -2 0 -37 22 -78
49 -107 70 -404 246 -549 326 -69 37 -145 79 -170 93 -321 178 -923 456 -1340
619 -265 103 -763 275 -985 339 -49 14 -110 33 -135 41 -53 17 -191 55 -305
84 -162 41 -191 48 -264 64 -41 9 -79 19 -84 22 -16 10 -280 65 -426 88 -51 9
-98 18 -103 21 -9 6 -93 20 -323 55 -493 74 -981 106 -1355 89z"/>
<path d="M7525 13914 c-54 -13 -75 -27 -75 -50 0 -30 52 -58 135 -73 33 -6 87
-25 121 -42 76 -38 115 -98 135 -209 20 -107 21 -3529 1 -3725 -35 -348 -74
-418 -254 -449 -48 -8 -96 -20 -108 -26 -28 -15 -25 -46 7 -67 25 -17 76 -18
766 -18 l739 0 19 23 c36 45 -10 75 -160 103 -116 22 -175 79 -205 200 -51
207 -58 474 -58 2337 0 1859 -8 1685 84 1696 29 4 75 12 102 18 54 12 235 5
346 -12 189 -30 354 -115 491 -250 93 -92 150 -171 193 -265 15 -33 31 -68 36
-77 6 -10 10 -26 10 -36 0 -10 4 -22 9 -27 10 -13 26 -77 46 -189 19 -105 22
-427 5 -521 -6 -33 -15 -85 -20 -115 -8 -53 -13 -71 -30 -115 -4 -11 -13 -38
-20 -60 -32 -101 -111 -234 -184 -313 -38 -41 -130 -113 -172 -135 -17 -9 -68
-25 -113 -37 -74 -19 -109 -21 -310 -19 -124 0 -234 -2 -243 -6 -19 -8 -26
-29 -20 -62 6 -31 104 -113 192 -160 53 -29 97 -44 148 -52 86 -13 132 -31
166 -63 22 -22 122 -160 251 -349 34 -48 69 -96 78 -107 9 -10 17 -23 17 -29
0 -6 4 -13 8 -15 5 -1 66 -84 135 -183 179 -254 239 -338 254 -353 7 -8 27
-35 45 -60 17 -26 34 -49 38 -52 3 -3 28 -34 55 -70 28 -36 52 -67 55 -70 3
-3 28 -32 55 -65 266 -317 508 -473 783 -505 48 -5 271 -10 496 -10 l408 0 -5
-662 c-6 -678 -16 -886 -51 -1043 -41 -184 -72 -212 -273 -246 -75 -13 -110
-35 -100 -63 14 -36 76 -39 752 -41 363 -1 878 -7 1145 -13 821 -21 941 -18
1016 29 60 37 95 169 133 504 7 55 16 128 21 161 21 134 7 209 -40 209 -30 0
-59 -40 -84 -121 -10 -32 -37 -99 -61 -149 -82 -175 -195 -251 -420 -286 -118
-18 -670 -19 -805 -1 -220 30 -329 86 -384 197 -69 141 -71 200 -71 2045 0
890 4 1649 9 1690 9 76 43 169 74 203 40 44 172 87 268 87 84 0 123 50 67 87
-23 16 -51 18 -198 18 -311 -1 -1027 -1 -1220 -1 -207 1 -239 -3 -256 -35 -18
-35 15 -59 98 -69 199 -25 285 -74 340 -190 33 -69 36 -183 40 -1197 4 -1009
4 -1013 -16 -1013 -40 0 -223 52 -301 85 -208 89 -420 269 -695 590 -27 32
-55 63 -60 69 -19 20 -260 309 -320 386 -33 41 -62 77 -65 80 -7 6 -86 104
-205 254 -68 86 -270 337 -323 401 -10 11 -47 57 -84 102 -38 44 -68 88 -68
98 0 18 18 38 60 70 65 48 237 210 320 301 60 65 180 219 180 230 0 4 7 16 16
26 9 9 26 35 38 57 11 21 32 58 46 82 29 52 44 89 77 189 37 113 41 127 59
230 24 141 10 392 -28 500 -3 8 -11 33 -18 55 -20 65 -97 214 -146 282 -178
250 -474 399 -909 460 -115 16 -184 17 -615 13 -655 -6 -811 -6 -1115 2 -143
3 -269 4 -280 2z"/>
<path d="M15338 8143 c12 -2 32 -2 45 0 12 2 2 4 -23 4 -25 0 -35 -2 -22 -4z"/>
</g>
</svg>
