<?xml version="1.0" encoding="UTF-8"?>
<svg version="1.1" viewBox="0 0 1600 1600" width="2048" height="2048" xmlns="http://www.w3.org/2000/svg">
<path transform="translate(977,245)" d="m0 0h23l13 7 8 8 4 5 3 9 1 7 16 2 5 3 3 5 9 2 1-5 4-4 10-3 6 1 6 5 2 3 2 8 10 6 2 2h6l5-2 9 1 5 3 4 5 6 9 9 3 5-2 8-3h7l3 5 1 8-1 8h2l4 8 6 11 3 7 8 3 7 5 3 4v12l-7 9-6 5-10 3-8 1-2 3 4 2 5 5 8 9 5 10 2 5 1 14-2 8-9 6-12 3 1 7-10 5-1 4 9 11 12 13 4 8 4 16 3 1 7-9 12-12 15-11 12-7 8-3 12-3 1-1 15-1 10 2 11 7 4 8v13l-3 8-10 14-5 6-11 9-9 8-12 8-4 2h-3l2 4 13 5 10 6 13 10 9 8 5 5 7 10 5 12v13l-4 6-11 8-1 3v6l10 1 7 4 3 4v12l-5 6-1 6v5h2v4h27l11 1 12 5 6 3 7 6 4 8 1 8v26l-1 9-3 7-3 8-10 19-8 10-7 8-7 7-5 4h-2l-2 4-16 16-5 3-5 4-11 7-9 5-16 8-23 8-2 9-4 11 9 1 16 8 14 9 12 11 8 11 5 10 4 12 1 6v12l-3 5-12 3-8 1-2 4 5 1h23l14-1h34l5 3 2 4v5l-2 4-9 7-69 1-8 1h-17l-7-6v-5l-5 1-1 3h-7l-5 5h-58l-9-1-1 4 7 14 7 21 2 13 1 2 1 13 1 3v29l-1 2-1 11-4 15-4 13-8 17-6 10-11 12-10 8-13 6-5 1h-23l-16-3-18-8-17-11-12-5-16-10-8-7-5 4-8 14-8 10-9 12-8 11-3 4h-2l-1 3-25 25-8 7-14 11-10 7-9 6-8 5-16 8-5 3-17 6-15 6-14 4-21 4-2 1-13 1-16 3h-13l-3-1-15-2-17-1-10-2-17-3-18-5-11-5-16-6-28-14-14-9-9-6-16-12-14-12-13-12-9-10-12-16-6-7v-2h-2l-4-7-6-9-12-22-3-6-3-2-10 1h-203l-9-3-3-4-4 1-7 2-4 5-5 1-7-3-4-4v-10l4-6 12-5 1-7 5-2 1-4 6-2-35-1-9-4-4-8 1-6 2-3 4-2h48l5 4 2 8v6h5l2 2h7l8-3 1-10 5-5 6-2h31l15 2 5 2 5-1 4-5-12-6-4-6-1-3v-9l1-5 1-37-5 1-12 9-5 4-11 6-9 4-15 6-14 2-11 3-17 1-3 1h-27l-18-4-11-5v-2l-5-2-9-9-7-12-3-10-1-1-2-12-1-8v-9l1-11 1-2 1-9 4-16 3-8 4-13 8-15 6-11 2-3h2l2-5 8-9 11-9 8-7 7-8 10-9 3-2-1-4-8-4-9-7-13-11-11-9-3-2v-2l-4-2-12-15-6-9-5-11-4-11-2-9v-17l4-13 7-9 8-6 11-5 6-2h30l16 4 16 5 7 1 5-9 2-5-1-4-10-8-8-9-7-11-8-17-4-10-3-14-1-1v-24l4-14 7-14 8-11 7-7 8-6 15-8 12-4h30l9 3 11 2 9 5 11 7 4 2h4l-2-8-6-13-3-10h-2l3 8v5l-8 1-6 2-4-4-4-14-5-4-2-4-4-2-2-17-2 3-2 9-4 8-3 3-9 1-6-3-3-7 1-14 9-24v-4l-4 1-11 9-9 8h-2l-1 3-10 8-9 1-6-3-3-4-2-5v-12l2-9 7-15 5-5 12-9 7-4 5-2 8-1v-3l-5-6-16-10-8-8-3-5-2-7 1-7 2-5 5-4 7-2h14l10 1 13 7 10 9 6 7 3 7h3l7-9 7-8 7-6h2v-2l11-5 10-3 15-1v-2l-3-1 1-8v-19l3-10v-7l-3-3-2-6v-9l3-4 9-1 4 3 2 6 4 1 6 3 5-1 3-9 6-5 4-2h28l6 5 3 7v2l6-2h5l1-4 4-7 1-17 4-8 5-5 8-6 12-5 13-1 9 1 11 6 10 9 6 9 2 4 2 11 36 1 8 7v12l-3 5 1 13 2 7 1 10 5-2 12-11 10-12 13-18 10-13 13-16 2-3h2v-2l7-4 35-1h45l8-1h11l8 4 9 10 8 10 9 11 12 13 8 8 7 8 7 5 3 1-3-10 1-7 3-6 7-5 5-2 1-4-5-2v-2h-2l-3-6-2-3v-10l3-5 5-2 21-1h21l5-2 1-1 1-10 4-8 7-7 10-6zm-89 103m249 125-1 2 3 3v-5zm-777 12-1 4 3-1v-3zm993 272-1 1v8h3l1-8zm-110 186m5 2m4 1v2l2-1zm3 2 2 4 9 9 3 5 5 6 4 10 4 2 1-4-8-15-9-10-9-7zm-110 98-1 4h3l-1-4zm5 13v3h2l-1-3zm2 5-1 2 2 7h3l-3-9zm3 11m6 21-1 2v9h3v-8zm2 14-1 1v10h3l-1-11zm-6 36-3 12-2 4-2 7-4 8-2 5-3 5v2h-2l-3 5v4l5-3 6-10 7-14 3-8 2-6 1-10zm-885 5 2 2v-2z" fill="#043425"/>
<path transform="translate(803,1172)" d="m0 0h91l98 1-1 6-14 21-8 10-6 5h-12l-6-1-22-1v2h7l5 1 1 5 6 7 10 1-2 4-9 10-14 14-14 11-15 10-22 12-20 9-19 7-25 6-26 4h-37l-27-4-26-6-21-7-27-12-15-8-18-13-19-14-13-12-8-8-9-11-11-14-10-13-8-13-2-5v-3z" fill="#12C8A7"/>
<path transform="translate(554,265)" d="m0 0 15 1 11 6 10 9 6 9 2 4 2 11 36 1 8 7v12l-3 5 1 13 2 7 1 10 5-2 11-10v3l-10 11-9 11-15 16-9 10-5 5-1-1-5-25-5-18-3-6-1-3h-6l-6 8-5 16-5 23-2 6h-2l-9-14-7-7-15-9-14-5-8-2h-17l-13 3-16 8-9 7-11 16-4 8-2 9v13l4 16 2 5 6 2 3-30 5-13 7-10 8-8 12-6 12-2 15 1 11 3 10 6 10 10 7 14 3 13 4 51 2 18v21l-4 15-8 16-9 11-12 7-15 5h-1l-1-28v-16l8-5 7-8 8-7 8-8 4-7 1-7-3-2h-6l-8 6-13 12-5 3-1-1-1-90-3-2h-8l-3 2-1 3-1 94-7-4-9-9-8-5-9 1-1 6 3 6 4 4v2l4 2 5 6 16 14 1 3v32l-6-1-16-8-6-4-6-5-9-12-5-10-4-12-1-8-1-37-2-10-4-9-4-4v-2l-5-2-13-6-8-2-11-1 2-4 12-10 13-10 3-5 2-10-1-9-5-6-3-1h-15l-15 4-6 2v-2l11-5 10-3 15-1v-2l-3-1 1-8v-19l3-10v-7l-3-3-2-6v-9l3-4 9-1 4 3 2 6 4 1 6 3 5-1 3-9 6-5 4-2h28l6 5 3 7v2l6-2h5l1-4 4-7 1-17 4-8 5-5 8-6 12-5z" fill="#CCDAB9"/>
<path transform="translate(726,298)" d="m0 0h9l13 2 2 16 9 19 6 15 6 10 9-1 3-4 1-12-6-12-9-14-9-13-3-5h56l8 9 9 11 13 14 7 8 12 14 11 12 26 26 8 7 11 11 7 6 1 5-1 14-2 6-19 7-16 8-13 10-14 12-10 9-6 6-8 2-2-6-5-26-9-29-6-12-6-7-10-6-7-2-7 3-5 4-7 11-6 13-8 31-1 3h-2l-6-14-10-16-6-5-3-1h-10l-10 6-8 11-5 12-3 13-2 15-3-1-9-35-8-15-10-12-8-5-3-1h-11l-4 5-6 11-4 6-2 11-2 16v35l1 14-22 1h-13v-51l4-16 8-16 6-7h6l8 5 5 4 1-9v-17l7-7 7-8 15-15 7-8 8-9 11-14 9-11 13-16 13-19z" fill="#12C480"/>
<path transform="translate(977,245)" d="m0 0h23l13 7 8 8 4 5 3 9 1 7 16 2 5 3 3 5 9 2 1-5 4-4 10-3 6 1 6 5 2 3 2 8 10 6 2 2h6l5-2 9 1 5 3 4 5 6 9 9 3 5-2 8-3h7l3 5 1 8-1 8h2l4 8 6 11 3 7 8 3 7 5 3 4v12h-1l-1-10-4-4-8-3-6-1h-26l-13 3-9 6-11 12-3-1-7-9-10-6-11-4-9-2h-22l-14 4-5 3-2 3v10l6 9 9 6 9 2-1-4-1-5-6-5 1-5 7-3h14l16 4 8 5 5 6 1 4-14-1h-16l-2 4-6 7-10 11-6 10-4 13-2 7-5-2-9-6-13-5-26-8-4-5-8-16-6-16-7-22-7-28-5-13-4-7-4 2-6 12-5 17-6 27-2 10-4-2-9-9-8-7-21-21-7-8-14-14-7-8-7-7 1-2 14 14 7 8 7 5 3 1-3-10 1-7 3-6 7-5 5-2 1-4-5-2v-2h-2l-3-6-2-3v-10l3-5 5-2 21-1h21l5-2 1-1 1-10 4-8 7-7 10-6z" fill="#CCDAB9"/>
<path transform="translate(606,841)" d="m0 0h8l5 12 5 11 6 16 6 17 5 11 13 32 15 36 7 19 8 19-1 3-26 5-18 4-4-1-4-6-9-19-13 2-45 9-3 4-7 19-4 8-2 2-21 3-27 6-24 5-25 5-35 8-11 2h-7l-1-6v-183l25-5 14-3h6v103l1 14v26l15-4 32-7 11-4h3l1 21 2 1 13-39 5-17 8-20 5-16 8-20 6-16 6-15 5-15 7-16 6-3z" fill="#CAE1C8"/>
<path transform="translate(520,638)" d="m0 0h28l15 4 10 6 9 9 6 11 3 9 1 7v16l-3 15-6 15-6 11-8 9-8 6 1 5 13 17 12 17 9 12 7 9v2l-36 9-13 3h-6l-8-14-13-17-13-19-2-1h-8l-20 4h-4l1 51-1 11-34 7-8 3h-4l-1-24v-165l-2-9 7-3 53-11z" fill="#A9E435"/>
<path transform="translate(903,994)" d="m0 0h4l1 20 4 25 8 24 1 5-18 6-8 7-10 12-13 24-3 9-1 6-1 21h-3l-4-16-4-15-8-16-7-11-17-17-11-8-17-9-13-4-14-2h-10l-22 3-18 6-11 6-13 8-6-1-8-2h-9l-12 2-13 5-14 8-10 9-10 15-11 25-5 16-16-1h-55l-5-16-5-18-3-19v-26l9-3 42-9 24-7 23-4 31-3 26-5 40-9 36-7 61-13 20-4 28-7 43-9z" fill="#58A71D"/>
<path transform="translate(1114,439)" d="m0 0 2 1v42l-8 25-2 9v9l13 28 9 11 8 9 17 12 15 10v3l-7 7-13 18-11 21-8 18-8 16-1 3-1 11-3-3-12-30-9-21-8-19-11-28-11-26-9-21-9-26-4-6-5-4-3-1h-20l-25 5-22 5-8 4-7 10-2 3-5-2-8-4h-15l-28 6-27 5-24 7h-6v-8l11-19 10-13 9-10 8-8 15-11 18-10 25-9 19-4 9-1h21l20 4 23 8 18 10 11 8 9 10 9 16 6 4 5 1 6-5v-9l-8-16-6-8-3-2 2-4 9-6 8-8 11-9 9-7z" fill="#A8E335"/>
<path transform="translate(1019,531)" d="m0 0h7l11 26 7 20 11 27 9 25 8 20 12 28 16 40-2 2-36 8-10 2-11-27-1-1h-11l-26 4-29 6-3 3-6 21-3 9-36 8-12 3-5 1v-6l5-16 10-35 6-18 10-28 14-41 9-23 8-28 8-21 2-2 17-3z" fill="#A9E336"/>
<path transform="translate(1029,753)" d="m0 0h5l1 89v49l-1 52-17 3-17 4-7 1-16-25-12-16-14-19-10-14-8-12-4-3 1 44v57l-9 3-15 3-16 4h-5l-1-30v-53l1-105 2-2 34-7 5 1 24 34 11 15 9 14 13 18 7 10 1-106 6-2z" fill="#F7F9EC"/>
<path transform="translate(753,587)" d="m0 0h4l1 17 1 95v31l-3 16-5 12-10 14-10 11-14 9-15 7-16 4h-26l-16-4-11-6-11-11-6-10-4-9-2-12v-133l6-2 35-8h6l1 117 2 15 3 5 5 4 6 2h13l10-4 7-5 5-7 3-10v-128l4-2z" fill="#66BD0E"/>
<path transform="translate(1149,729)" d="m0 0 3 1 8 20 6 16 14 36 10 25 12 31 14 35 6 10 1 3-25 4-22 4-5-1-8-18-3-5v-2l-25 5-29 6-4 2-9 25-3 5-12 3-22 4-11 3h-5l2-12 10-35 8-24 3-11 6-13 9-26 5-12 6-17 6-15 8-22 5-13 2-2 35-9z" fill="#F7F8EC"/>
<path transform="translate(959,977)" d="m0 0h6l11 7 8 7 10 8 13 12 9 9 9 11 8 10 12 16 22 33 17 32 12 25 14 34 8 22v3h-15l-17-5-16-5-1-3 5-23-1-6-4-5-2-1h-6l-3 4-6 16-4 4-10-7-5-4 1-7 4-11 1-11-3-6-6-2-5 3-10 16-4 3-4-2-7-8-7-9-10-14 2-5 9-9 4-8 2-10v-14l-4-4h-9l-3 8-5 13-5 6-5 3-4-2-11-16-12-23-7-19-5-22v-11l3-20 2-4z" fill="#12C582"/>
<path transform="translate(606,841)" d="m0 0h8l5 12 5 11 6 16 6 17 5 11 13 32 15 36 4 11v5l-3-4-5-8-2-1h-11l-23 4-28 3-40 7-15 4-12 6-6 8-11 24-4 2v-2l-3-1-3-6 1-6 10-28 7-24 8-20 5-16 8-20 6-16 6-15 5-15 7-16 6-3z" fill="#F7F8EC"/>
<path transform="translate(1084,956)" d="m0 0h6l8 7 10 10 10 14 12 21 1 6-34 9-9 2-2 3v7l3 6 2 1h12l35-6h5l3 5 1 6h-2l-1 3h5l3 10v1l2 4-2 1 1 7 4-1 5 18 1 9-2-1-1 9h3v-6h1l2 11v12l-11-1-15-3-9 2-2 5v8l9 3 23 7 1 3-2 8h-1v-9l-2-1v5l-3 8-2 9-5 9-2 5-4 7h-2l-1 4-2 4h2v2l-3 1-10-29-14-33-10-22-10-19-12-20-15-24-11-15-7-9-9-11-12-14-16-16-7-8-3-4v-2l12-3 36-7 28-6zm71 119m8 35-1 1v10h3l-1-11z" fill="#A9E336"/>
<path transform="translate(920,552)" d="m0 0h6l-1 47-37 7-19 4-1 2-1 20-1 45v76l1 11-5 2-27 4-10 2h-4l-1-9v-79l1-46 1-15 1-3-12 3-33 6-7 1v-45l2-2 57-12 39-8 28-6z" fill="#A9E336"/>
<path transform="translate(802,799)" d="m0 0 3 1v44l-7 2-37 7h-4v148l-1 1-17 3-23 5h-4l-1-12v-71l1-62-13 3-27 5-13 1v-43l18-4 26-5 30-7 39-8 28-7z" fill="#F7F8EB"/>
<path transform="translate(726,298)" d="m0 0h9l13 2 1 4v10l-5 8-7 28-7 20-10 33 1 6 17 12 8 7 6 8 11 5-1 6h2l-2 12-4 14h-2l-6-14-10-16-6-5-3-1h-10l-10 6-8 11-5 12-3 13-2 15-3-1-9-35-8-15-10-12-8-5-3-1h-11l-4 5-6 11-4 6-2 11-2 16v35l1 14-22 1h-13v-51l4-16 8-16 6-7h6l8 5 5 4 1-9v-17l7-7 7-8 15-15 7-8 8-9 11-14 9-11 13-16 13-19z" fill="#12C8A6"/>
<path transform="translate(484,1079)" d="m0 0 4 1 5 32 5 19 4 13v4l-27 1h-181l-7 1-2 3v9l3 5-4-1-3-4-4 1-7 2-4 5-5 1-7-3-4-4v-10l4-6 12-5 1-7 5-2 1-4 6-2-35-1-9-4-4-8 1-6 2-3 4-2h48l5 4 2 8v6h5l2 2h7l8-3 1-10 5-5 6-2h31l15 2 5 2 5-1 4-5-6-3 2-1h19l21-4 16-4 30-7zm-212 72 2 2v-2z" fill="#CDDABA"/>
<path transform="translate(717,515)" d="m0 0h109l-2 6-7 11-6 10-3 10-15 4-55 11-12 3-26 5-8 4-4 5-5 7h-2l-4-5-5-2h-12l-23 4-29 5-12 4-9 8-7 12h-17l-20-3h-21l-1-9v-11l8-3 19-7 11-7 12-12 9-14 5-10 15-1h109l35 1h18l6-2-1-8-1-2-9-2-61-3-1-1v-6l1-1z" fill="#A7E234"/>
<path transform="translate(506,385)" d="m0 0 15 1 11 3 10 6 10 10 7 14 3 13 4 51 2 18v21l-4 15-8 16-9 11-12 7-15 5h-1l-1-28v-16l8-5 7-8 8-7 8-8 4-7 1-7-3-2h-6l-8 6-13 12-5 3-1-1-1-90-3-2h-8l-3 2-1 3-1 94-7-4-9-9-8-5-9 1-1 6 3 6 4 4v2l4 2 5 6 16 14 1 3v32l-6-1-16-8-6-4-6-5-9-12v-9h2l1-7 1-31 1-8 1-4 6-17 3-18 3-22 3-8 6-8 7-7 15-11 2-6z" fill="#A8E235"/>
<path transform="translate(352,851)" d="m0 0h44l9 2v4l-22 4-6 4-5 6-2 4v8l2 6v4l-14 7-22 16-14 12-8 8-8 7-15 14-31 31-7 8-11 13-9 11-8 10-4 9-3-1-5-11-3-11-1-9v-16l1-1 18-1 6-3 2-3v-8l-4-4-17-2-1-5 8-20 12-22 5-9 7 1 19 6 17 4h5l5-4 1-5-3-5-16-8-10-4-2-4 13-13 13-10 16-8 21-7 21-4z" fill="#12C8A7"/>
<path transform="translate(1114,439)" d="m0 0 2 1v42l-8 25-2 9v9l13 28 9 11 8 9 17 12 15 10v3l-7 7-13 18-11 21-8 18-8 16-1 3-1 11-3-3-12-30-9-21-8-19-11-28-11-26-9-21-5-15v-7l-3-6 1-2 4 1 4-4h2v-2h2v-2h2l2-5 3 4 4 5 5 2 7 1 6-5v-9l-8-16-6-8-3-2 2-4 9-6 8-8 11-9 9-7z" fill="#CCD9B9"/>
<path transform="translate(1190,613)" d="m0 0 7 6 8 8 14 9 20 11 12 6 20 4 13 4h10l6-2-5 5-1 3v6l10 1 7 4 3 4v12l-5 6-1 6v5h2v4h27l11 1 12 5 6 3 7 6 4 8 1 8v26l-1 9-3 7-2 5-1-3 3-9 1-6v-32l-4-11-5-5-12-6-14-3h-18l-17 3-27 9-8 4-3-1-2-4-6-10-5-15-7-10-9-6-7-2h-9l-9 4-10 7-8 5-7 8-5 4h-3l2 11 2-3h2l2-4 4-3-2 7-3 8-2 1-1 6 1 4-3-1-4-18-5-10-5-5-6-2-11-2-1-3 8-16 5-12 13-32 7-16 6-10z" fill="#CBD9B8"/>
<path transform="translate(903,994)" d="m0 0h4l1 20 4 25 8 24 1 5-18 6-8 7-10 12-13 24-3 9-1 6-1 21h-3l-4-16-4-15-8-16-7-11-17-17-11-8-17-9-15-5v-1h7l11 1 11-6 4-2 1-5 3-7 4-9 1-5 7-6 1-2-36 6-36 8h-6l1-2 36-8 31-6 32-8 43-9z" fill="#A9E335"/>
<path transform="translate(753,587)" d="m0 0h4v15l-1-3-10 2h-6l-1 2-9 1-1 1h-5v49l1 28v45l-3 13-5 9-5 5-3 1-1 3-15 6-7 2h-9l-13-6-3-1-1-2-4-2-3-3-8-4h-18l-3-1-1-6v-25l1-23 1-62 2-3h-2l-1 4-1 62-1 22-1 59 1 5-4-4-6-13-2-12v-133l6-2 35-8h6l1 117 2 15 3 5 5 4 6 2h13l10-4 7-5 5-7 3-10v-128l4-2z" fill="#A9E435"/>
<path transform="translate(854,790)" d="m0 0h8l-1 31v158l-27 6-10 2-9 1v-48l1-41 1-101 7-2z" fill="#F7F8EB"/>
<path transform="translate(374,912)" d="m0 0 2 2v89l-3 5-11 11-4-2-10-33-3-3h-9l-3 2-1 3v12l5 22 3 11-8 7-12 5-17 5-4-1-1-7v-18l-1-8-2-2-8-1-4 1-3 6-1 5-1 27-10 1h-29l-6-2 4-7 8-9 11-14 11-13 18-20 8-7 9-9 7-8 8-7 15-15 9-7 10-8 15-10z" fill="#12C8A7"/>
<path transform="translate(757,299)" d="m0 0h56l8 9 9 11 13 14 7 8 12 14 11 12 26 26 8 7 11 11 7 6 1 5-1 14-2 6-19 7-7 3h-3l-3-3-8-4-5-5-7-6-3-3-8-7-15-14-13-13-7-9-3-4-2-9 5-7 3-2v-10l-14-32-5-7-2-1h-8l-3 1v8l4 14 3 7-1 4h-9l-6 3h-2l-2-13-7-12-13-20z" fill="#A9E336"/>
<path transform="translate(436,876)" d="m0 0h6v103l1 14v26l15-4 32-7 11-4h3v17l-2 2-3-1-31 6-5 1-14 1h-10l-1-1v-6l2-5v-8l-8 1-12 4-9 4-1 4-1 46h6l-3 2-7 2h-7l-1-6v-183l25-5z" fill="#F8F9ED"/>
<path transform="translate(447,665)" d="m0 0h3l-1 14v93l10-2 10-6 5-2 15-2 14-1 11-2 36-2 7 1 4 7 14 18 12 17 12 15-1 4-26 6-11 3-12 1-7-12-11-14-13-18-6-6h-10l-14 3 1 2-9 1 1 51-1 11-34 7-9 3-1-2v-6l5-5h3v-14l1-45v-94l1-21z" fill="#67BD0E"/>
<path transform="translate(342,648)" d="m0 0 5 1 9 10 12 13 13 13 5 4 7 8 11 12 5 7 1 3v37l-2 73-1 2-12-2-7-2-8-15-12-17-7-7-3-4 1-3 6-3 7-8 7-14 1-3v-17l-4-14-6-10-2-4h-2v-2l-5-2-10-5-8-2h-13l-10 2-9-10-11-11v-2l19-9 13-11z" fill="#4FBB5F"/>
<path transform="translate(752,1074)" d="m0 0h22l16 4 11 6 12 9 12 12 8 13 7 20 2 11v5h-33l-2-14-5-13-7-10-8-7-10-4-5-1h-13l-10 3-11 6-10 10-4 7-1 4-1 18-27 1-11 1v-9l5-16 7-17 5-10 11-12 11-8 11-5z" fill="#A8E336"/>
<path transform="translate(1059,675)" d="m0 0h13l9 2 4 2 11 28 4 11-12 3-30 7-6 1-11-27-1-1h-11l-26 4-29 6-3 3-6 21-3 9-36 8-11 2-1-4 7-9 4-12 5-11 3-9 4-14 2-6h2v4l12-3 13-2 17-1 22-5 19-4z" fill="#67BE0E"/>
<path transform="translate(977,245)" d="m0 0h23l13 7 6 9 6 11 1 5v7h18l4 3 1 3v11l-4 4-3 1h-28l-114-1-6-5-1-2v-9l3-5 3-1 21-1h21l5-2 1-1 1-10 4-8 7-7 10-6z" fill="#15C8A7"/>
<path transform="translate(328,570)" d="m0 0h16l16 4 16 8 8 5v2l5 2 15 15 11 14 7 11v3l-11 6-5 4-4 6-1 6 7 14 1 3v14l-4-1-7-9-11-9-8-8-6-5-7-8-12-14-22-22-7-8-10-11-10-13 4-4 12-4z" fill="#13C581"/>
<path transform="translate(1325,735)" d="m0 0h16l8 2 2 2-5 5-8 7-14 11-11 10-10 8-16 13-14 12-11 11-8 7-12 11-8 8-7 6h-2l-15-31-3-7 1-5 11-10 8-7 7-7 14-11 12-9 19-11 21-9 14-4z" fill="#A8E336"/>
<path transform="translate(592,1055)" d="m0 0h7v2l-17 4-4 2h11l4 5 1 16-2 12-2 3 1 2-2 1-1 3 2 1h-4l1 3-2 1v2h-2v2l-6 1-1 5-2 4h-4l-1 5-3 2-1 6-4 6h-2v2l-4 1-2 5h42l2-6 5-13 2-2-1 6-6 19-16-1h-55l-5-16-5-18-3-19v-26l9-3 42-9 24-7z" fill="#66BD0E"/>
<path transform="translate(484,1079)" d="m0 0 4 1 5 32 5 19 4 13v4l-32 1-3-2-30-2-10-4-3-3-17-5-14-2-8-5-6-2 1-8-1-6 19-5h2v-2l10-4 12-3 7-4 20-4 12-3z" fill="#B3D082"/>
<path transform="translate(554,265)" d="m0 0 15 1 11 6 10 9 5 7 4 17v2l36 1 4 2 3 8-4 10-5 2h-108l-5-3-4-6v-7l2-3 2-22 1-3 8-7 5-6 6-2 1-3 6-2z" fill="#17C9A8"/>
<path transform="translate(385,478)" d="m0 0h9l17 4 10 4 6 6 1 22 3 17 6 16 7 12 6 7 11 9 11 7 10 5 10 3 7 2 1 7v19l-10 2-29 6-5 1h-10l-11-19-10-32-11-31-12-28-9-19-8-14-1-5z" fill="#CDDBBA"/>
<path transform="translate(1222,685)" d="m0 0h9l11 4 8 7 6 10 4 13 6 10 2 4v2l-18 10-16 12-11 10-8 7-10 9-4 3-4-1-12-36-2-5v-3h2l-2-5 2-6h2l2-8 2-6-5 6h-2l-2 5h-1l-1-5v-8l7-4 9-10 10-6 10-7z" fill="#58A71D"/>
<path transform="translate(748,314)" d="m0 0 3 4 8 17 6 15 6 10 3 9 7 16 6 11 5 6v6l-7 3-5 4-7 11-6 13-3 8h-2v-5l-11-6-9-11-22-16-1-6 12-40 6-16 6-25z" fill="#AAE437"/>
<path transform="translate(237,735)" d="m0 0 16 1 14 3 27 9 5 12 5 10 8 7 12 6 11 2 9 10 7 8 9 9 7 8 8 8v2l-15 2-7 1h-9l-14-10-18-13-9-7-11-8-13-11-12-8-28-21-16-10-3-3v-3l9-3z" fill="#A8E237"/>
<path transform="translate(582,554)" d="m0 0 9 2 15 5 10 4 27 5 31 2 3 2 1 7h-13l-9 1-4 3-33 6-15 3-9 4-8 7-7 12h-17l-20-3h-21l-1-9v-11l8-3 19-7 11-7 6-4 9-9 7-9z" fill="#66BD0E"/>
<path transform="translate(520,638)" d="m0 0h28l15 4 10 6 9 9 6 11 3 9v14l-2-2-1-6-4-4-12-16-7-6-6-2v-2h-5v-2h-34l-17 3-8 2-15 2-13 3-6 1-14 3-1 24v106l-1 33-1 14-6 3-1 2v8h-3l-1-24v-165l-2-9 7-3 53-11z" fill="#F0F1E2"/>
<path transform="translate(1294 1e3)" d="m0 0h9v1l-18 3-2 4 5 1h23l14-1h34l5 3 2 4v5l-2 4-9 7-69 1-8 1h-17l-7-6v-5l-5 1-1 3h-7l-5 5h-58v-1l56-1 3-5-1-7-5-3-7-1h-67l-3-4-2-5v-3z" fill="#CDDBBB"/>
<path transform="translate(1355,754)" d="m0 0h2v17l-3 12-8 16-11 18-7 11-4 2-4-2h-5l-5 4-4 8-3 7-7 6-14 8-15 7-14 4h-16l-1-1v-5l12-14 21-21 11-9 14-12 11-9 11-10 8-7 10-9 7-7 5-4 5-6h1l1 8 2-3v-5l-2-1v-2z" fill="#A8E237"/>
<path transform="translate(1224,939)" d="m0 0 13 1 11 3 9 4-2 1 7 8 5 5 3 5 5 6 4 10 5 1-2 3h-110l3-10 6-11 9-10 8-7 12-6zm19 4m5 2m4 1v2l2-1z" fill="#A18859"/>
<path transform="translate(751,599)" d="m0 0h5l2 5v100l-2-1v-3h-2l-3 9-1 2h-2l1 3-1 3h-2l-1 3h-7l-2-1v2l-6 2-2 1-1-2-1-18-1-41v-24l1-22 1-10 5-2-2-2 9-1 7-2z" fill="#AAE435"/>
<path transform="translate(436,1009)" d="m0 0 5 1v10l-2 3v6h10l14-1 29-6 9-1h3l1 4 2 1v7l-7 14h-4l-1 3-16 5-15 3 1 2-31 7-18 4-4-1-3-1v-46l2-5 17-7z" fill="#C9E1C8"/>
<path transform="translate(924,1084)" d="m0 0 4 1 9 12 8 11 13 15 13 19 8 10v2h-26l-37-1v-25l-9 2-5 5-3 7-3 11-1 1h-10l1-15 4-13 7-14 9-12 9-10z" fill="#57A71E"/>
<path transform="translate(211,756)" d="m0 0 4 2 13 9 19 14 17 13 12 8 16 13 13 11 11 8 4 4v2l-24 7-3 1h-8l-20-11-10-8-9-16-5-4h-7l-7-9-9-15-6-15-1-5z" fill="#A7E237"/>
<path transform="translate(1065,502)" d="m0 0 3 4 4 5 5 2 7 1 6-5 1-5h1l1 7 1 1 1 8v10h2l6 7 6 2 12 24 1 3 3 1 5 9v6l-3 1v10l-1 2-7 1-1 2-3-2-6-1-3-5-4-5-5-14v-3l-4-2-5-5-6-5-2-3-9-1-2-1v-3l-4-3v-2h-6l-5-12-3-9-3-6 1-2 4 1 4-4h2v-2h2v-2h2z" fill="#B4C89D"/>
<path transform="translate(753,587)" d="m0 0h4v15l-1-3-10 2h-6l-1 2-9 1-1 1h-5v49l1 28v45l-3 13-5 9-5 5-3 1-1 3-15 6-7 2h-9l-13-6-3-1-4-7v-6h2l1-4 8 7 6 2h13l10-4 7-5 5-7 3-10v-128l4-2z" fill="#F6F8EB"/>
<path transform="translate(374,715)" d="m0 0 3 4 3 5 3 13 2 12 7 3h14l2-12h1v47l-1 42-1 2-12-2-7-2-8-15-12-17-7-7-3-4 1-3 6-3 7-8 7-14 1-3v-17l-4-14-2-4z" fill="#67BD0E"/>
<path transform="translate(353,573)" d="m0 0 7 1 16 8 8 5v2l5 2 15 15 11 14 7 11v3l-11 6-5 4-4 6-1 6 7 14 1 3v14l-4-1-7-9-11-9v-3h8l2-7 1-12-5-8-10-8-6-3-9-9v-2l-4-2-7-8-3-8-1-13-1-6z" fill="#4EBB60"/>
<path transform="translate(514,684)" d="m0 0h16l10 5 3 5v13l-4 10-5 6-12 6-26 6-10 2h-7l1-46 7-2 20-4z" fill="#033325"/>
<path transform="translate(1019,531)" d="m0 0h7l2 5-1 4-10 3-11 1-13 2-4 2-4 8-7 23-6 17-5 15-4 8-4 14-12 36-7 20-5 17-3 8-5 14-4 10-3 6-3 4h-2v6l-3 2h-3v-6l5-16 10-35 6-18 10-28 14-41 9-23 8-28 8-21 2-2 17-3z" fill="#F2F4E5"/>
<path transform="translate(1028,891)" d="m0 0 6 1v51l-17 3-17 4-7 1-9-14-2-6-11-18-1-9h23l12-4 14-7z" fill="#C9E1C8"/>
<path transform="translate(833,627)" d="m0 0h1l1 67 9-4 10-4 10-1v78l-1 1-22 3-6 2v1l-11 2 1-5 3-1 3-33 1-22z" fill="#67BE0F"/>
<path transform="translate(726,298)" d="m0 0h9l13 2 1 4v10l-5 8-7 28-7 20-10 33 1 6 17 12 8 7 6 8 11 5-1 6h2l-2 12-4 14h-2l-6-14-10-16-6-5-3-1h-10l-7 3-8 4-2-4h-3l-2-4-2-1-1-4 3-9 8-13 5-6h2l2-5 4-9 2-9 3-9 6-14 2-16 1-2v-9l-1-5 2-7-5-2-2-6-6-1h-3l5-9z" fill="#13C581"/>
<path transform="translate(669,1090)" d="m0 0h15l-1 5-9 19-7 19-4 14-1 6-2 1h-43l1-7 6-16 8-14 12-13 12-9z" fill="#49A42D"/>
<path transform="translate(1273,513)" d="m0 0 7 1 2 3v7l-7 7-10 8-8 9-7 8-9 9-17 10-21 8h-3v-9l6-16 6-10 7-8h2v-2l14-10 13-8 11-4z" fill="#13C8A7"/>
<path transform="translate(290,590)" d="m0 0 4 1 10 11 7 8 8 8 14 16 2 1-1 3-12 9-10 8-12 10-4 6-4-5-7-15-4-14-1-6v-14l4-16z" fill="#12C8A6"/>
<path transform="translate(651,608)" d="m0 0h6v11l-2 2h-10l-1 2-3-1-1 2-6 1-8 2-2 5-1 62-1 22-1 59 1 5-4-4-6-13-2-12v-133l6-2z" fill="#F5F6E9"/>
<path transform="translate(829,1013)" d="m0 0 3 1-5 6-4 3v5l-8 16-1 4-11 7-4 2-18-1-12-1h-10l-22 3-10 3h-5l3-3 15-4 16-3h4l-2-10-1-2h2l-1-7 1-2h-17l2-2 9-1 11-1 36-8 25-4z" fill="#67BE0E"/>
<path transform="translate(920,552)" d="m0 0h6l-1 11-15 3-15 4-16 3-2 1-8 1-7 1-26 6h-3l-1 2-17 3-7 2-16 2-7 3-1 2-2 23-3 7-5 4h-3v-45l2-2 57-12 39-8 28-6z" fill="#F4F6E9"/>
<path transform="translate(1132,504)" d="m0 0 7 1 9 7 9 9 8 7 8 9 8 16 2 8v19h-3l-19-10-12-5-1-5 2-7-5-2-1-1v-12l-9-3-8-2-2-3v-17l3-6z" fill="#12C7A6"/>
<path transform="translate(766,1199)" d="m0 0h8l4 5 4 6 2 1 11 1h50l5-2 4-4h7l6 7 1 2v7l-7 6-10 3h-68l-11-3-8-7-3-3-1-3v-8l4-7z" fill="#033325"/>
<path transform="translate(1187,867)" d="m0 0h11l6 4 4 18 2 6-4 1-8-4-16-4-10-2-12-6-13 1-7 2-10 4-7 1-1 3-10 3h-2v2l2 2h-5v-3l-12 4-10 2-11 1-5 1-1 2-2-1-3 9-5 9-1-4 9-20 4-6 6-4 14-5 55-11 23-3z" fill="#B5D3B6"/>
<path transform="translate(1346,1014)" d="m0 0h11l7 4v10l-9 7-93 1-3-4-1-3v-9l3-3 11-1z" fill="#0A3928"/>
<path transform="translate(361,479)" d="m0 0 4 4 9 15 13 28 9 22 5 13 3 15-1 4-3-3v-2l-4-2-5-4-12-7-12-6-16-4-7-1h-20l-14 3-16 8-10 9-12 12 2-5 11-12 8-6 15-8 12-4h30l9 3 11 2 9 5 11 7 4 2h4l-2-8-6-13-3-10h-2l3 8v5l-8 1-6 2-4-4-4-14-5-4-2-4-4-2-2-17-2 3-2 9-4 8-3 3-9 1v-1l9-3 3-5 4-19 4-12 7-11zm-1 6-1 4 3-1v-3z" fill="#CCDAB9"/>
<path transform="translate(1173,663)" d="m0 0 3 1 1 2 11-1h9l6 3 9 2 4 4v3l2 1 1 4-3 5-3 3-10 7-8 5-7 8-5 4h-3l2 11 2-3h2l2-4 4-3-2 7-3 8-2 1-1 6 1 4-3-1-4-18-5-10-4-7-4-3-1-10 1-4-1-5 4-14 2-3h2z" fill="#B3C79C"/>
<path transform="translate(605,1200)" d="m0 0h9l8 10 2 1h48l13-2 6-3h7l6 8-1 7-7 6-6 2-39 1h-31l-9-3-10-9-1-2v-9l4-6z" fill="#033325"/>
<path transform="translate(648,447)" d="m0 0 4 2 7 10 6 13 6 22 5 28-1 1h-37l1-15 2-26 4-27z" fill="#12C8A7"/>
<path transform="translate(956,981)" d="m0 0 8 1v3l-1 4h-2l-2 12-3 12-2 5-3 7 2 2-3 11 4 1-3 5 2 3 1 15 1 6 3 2 1 5h1v7l2 2 6 12-4-2-4-3-3-1-9-16-9-19-6-19-3-15v-11l2-14 2-1 2-7z" fill="#12C7A6"/>
<path transform="translate(333,717)" d="m0 0h11l8 4 6 8 3 8v12l-5 10-8 6-3 1h-15l-7-4-7-9-2-5v-13l3-7 5-6 7-4z" fill="#A1895A"/>
<path transform="translate(371,683)" d="m0 0 6 2 13 12 11 9 8 10 1 3v37h-1l-1-10-2 6-3 1h-11l-8-4-5-25-5-8-5-5-1-3h-2l-3-6 2-6 4-11h2z" fill="#48A42E"/>
<path transform="translate(793,430)" d="m0 0 4 2 5 8 12 35 5 19v3l-45 1v-9l7-25 6-24 4-8z" fill="#12C581"/>
<path transform="translate(756,946)" d="m0 0h1v55l-1 1-17 3-13 3h-3l-1-2 1-47 5-5 15-5 7-2 5 1z" fill="#C9E1C7"/>
<path transform="translate(852,925)" d="m0 0h7l2 1v53l-22 5-13-1v-13l2-31 3-6 12-6z" fill="#C9E0C6"/>
<path transform="translate(929,906)" d="m0 0h1v57l-9 3-15 3-4-1-5 1-1-1v-47l2-5 10-3 9-2h9l1 2 1 10z" fill="#C9E1C7"/>
<path transform="translate(1126,934)" d="m0 0h21l13 3 16 1-6 8-7 10-7 14-5 16-6 5-3-3-15-25-10-13-1-6 6-8z" fill="#CAD8B6"/>
<path transform="translate(823,620)" d="m0 0 7 2 2 3 1 8v78l-2 34-2 21-4 2-1 4h-3l-1-9v-79l1-46 1-15z" fill="#EEF4DB"/>
<path transform="translate(1214,595)" d="m0 0h9l15 4 19 8 13 9 13 14 4 7v3h-14l-12-3-5-8-6-1-8 3-4-1-14-11-12-11-5-6-1-3 4-3z" fill="#14C8A7"/>
<path transform="translate(464,582)" d="m0 0 9 3 2 1 1-2 9 4 13 3 1 1 1 7v19l-10 2-14 3-13-1-6 1h-6l-5-2v-3h-2l-1-4 2-5 2-1 1-3 3-2 2-5 5-5 5-10z" fill="#B4D083"/>
<path transform="translate(486,653)" d="m0 0h8l3 2-30 6-6 1-14 3-1 24v106l-1 33-1 14-6 3-1 2v8h-3v-164h1v89h2l1-25 1-16v-35l1-1-1-11 1-4-1-1 1-11 2-4h2l1-7 4-2v-2l5-2 14-3 13-2z" fill="#F6FAE4"/>
<path transform="translate(436,1009)" d="m0 0 5 1v10l-2 3v6h10l14-1 29-6 9-1v6h-2v2l-6 1-4-1-9 3-10 3-5 2-16 4-13 3-6 3-8 6-6 3h-3l-2 9h-2v-42l2-5 17-7z" fill="#B5D3B6"/>
<path transform="translate(1204,873)" d="m0 0 3 4 4 10 2-1 10 20-25 4-22 4-5-1-8-18-3-5v-2l-25 5-19 4h-8l2-1v-2l12-4 3-3 9-3 7-3 13-2 9 1 11 6 13 2 13 4 6 3 3-1-3-8z" fill="#CAE1C8"/>
<path transform="translate(352,851)" d="m0 0h44l9 2v4l-22 4-6 4-5 6-2 4v8l2 6v4l-14 7-22 16-10 8-2-1 11-10 15-11 6-4 10-6h3l-2-8v-10l6-10 11-8h2l-1-2h-33l-27 5-23 8-13 7-10 8-10 10-1 4 15 7 9 6 3 4v7l-5 5-2 1h-11l-27-7-9-2-8 14-7 12-9 23 12 1 8 4 2 4v10l-7 6-8 2h-12l1 19 2 10 4 11 20-25h2l2-4 3-5h2l2-4 16-16 7-8 16-16 8-7 5-5h2l-2 4-8 7-34 34-7 8-11 13-9 11-8 10-4 9-3-1-5-11-3-11-1-9v-16l1-1 18-1 6-3 2-3v-8l-4-4-17-2-1-5 8-20 12-22 5-9 7 1 19 6 17 4h5l5-4 1-5-3-5-16-8-10-4-2-4 13-13 13-10 16-8 21-7 21-4z" fill="#43D9B7"/>
<path transform="translate(803,1172)" d="m0 0h91l98 1-1 6-14 21-8 10-3 3-3-1 7-7 7-10 11-17 1-2h-76l-22-1h-37l-86 1h-110l-118 1 2 6 6 10 10 13 9 12 9 10 7 8 8 8 8 7 11 9h-3l-12-9-12-11-8-8-9-11-11-14-10-13-8-13-2-5v-3z" fill="#49DCBA"/>
<path transform="translate(1e3 596)" d="m0 0 3 3 13 36 6 16v5l-1 1-32 6-9 1 1-7 8-29z" fill="#033324"/>
<path transform="translate(1222,685)" d="m0 0h9l11 4 8 7 2 3v4l-3 3-7 11-6 10-4 6-3 2h-9l-8-7-2-5v-11l2-10 1-10 6-6z" fill="#033324"/>
<path transform="translate(1308,832)" d="m0 0v3l-5 12-7 6-14 8-15 7-14 4h-16l-1-1v-5l12-14 9-9 4-1 6-5h22l13-3 5-1z" fill="#65BC10"/>
<path transform="translate(677,1235)" d="m0 0 23 1h41l6 3 3 5-1 6-6 5-58 1-10-3-3-5-1-7 1-3z" fill="#F6F8EC"/>
<path transform="translate(255,813)" d="m0 0 7 2 4 3h9l6 2h8l7 1 9 6 4 2 8 6 3 3v2l-24 7-3 1h-8l-20-11-10-8-7-14z" fill="#66BD0E"/>
<path transform="translate(1134,443)" d="m0 0 5 1 12 9 9 9 10 6 3 1 13 1-4 2-8 2 1 7-10 5-1 4 9 11 12 13 4 8 2 6-1 4-7-14-11-14-8-8-13-8-16-8-1-1zm3 30-1 2 3 3v-5z" fill="#CDDABA"/>
<path transform="translate(759,1121)" d="m0 0h12l9 6 6 7 4 11 1 8-51 1 1-12 4-10 7-7z" fill="#A8E235"/>
<path transform="translate(353,573)" d="m0 0 7 1 16 8 8 5v2l5 2 15 15 11 14 7 11v3l-11 6-4 2 2-4 5-7v-6l-6-9-6-5-9 1-4-2-10 1-8-1-7-3-5-5-4-5-2-7-1-11z" fill="#AAE435"/>
<path transform="translate(1104,895)" d="m0 0h3l-1 4-4 2-9 25-3 5-12 3-17 3-10-1-1-3 6-13 3-1 7-15 6-2 2-1 19-2 7-3z" fill="#CBE2C9"/>
<path transform="translate(848,1086)" d="m0 0 25 1v2l10 2 1 4-12 22-3 9-1 6-1 21h-3l-4-16-4-15-8-16-7-11-3-4 1-3z" fill="#57A71E"/>
<path transform="translate(592,905)" d="m0 0 5 5 6 18 5 11 5 13v6l-15 3-22 5h-2l2-11 11-35 4-14z" fill="#053425"/>
<path transform="translate(954,373)" d="m0 0 4 1 3 9 6 36 7 11v3l-35 4h-5l1-7 8-16 5-17 3-21z" fill="#12C7A6"/>
<path transform="translate(1117,307)" d="m0 0h10l5 6 2 9v11l2 5-1 9-6 7-2 1h-10l-5-3-5-8-3-8v-9l2-9 4-5z" fill="#59A91C"/>
<path transform="translate(500,386)" d="m0 0h10l-2 1-1 6-10 8-9 7-7 8-4 7-3 16-3 23-3 5-5-2-4-9-3-2h3l3-30 5-13 7-10 8-8 12-6z" fill="#F8FCE6"/>
<path transform="translate(354,1106)" d="m0 0 16 1 7 3 3 2 1 5-2 7-7 3h-44l-7-3-3-3-1-6 3-6 2-2z" fill="#033325"/>
<path transform="translate(1216,687)" d="m0 0 2 1-4 4-2 16-1 4v11l3 6 6 5h9l5-5 3-6h2l-1 5-4 6-5 4h-9l-5-3-6-6-6-1-7 4-4 8-3 8 1 5 5 16 3 9 3 1 9-3-2 4-7 6-4-1-12-36-2-5v-3h2l-2-5 2-6h2l2-8 2-6-5 6h-2l-2 5h-1l-1-5v-8l7-4 9-10 10-6z" fill="#66BD0E"/>
<path transform="translate(1130,794)" d="m0 0h2l11 27 8 20v3l-12 3-26 5 1-9 7-24 8-24z" fill="#043425"/>
<path transform="translate(424,1095)" d="m0 0 1 2-9 6-3 6-1 7-1 1 3 5 8 7 12 6 4 4 12 4 18 2v1h-13l-18-1-10-4-3-3-17-5-14-2-8-5-6-2 1-8-1-6 19-5h2v-2l10-4 12-3z" fill="#B4C89C"/>
<path transform="translate(473,519)" d="m0 0 4 1 9 9 8 7 4 5-1 23-3 4-6-1-15-8-8-8-2-4 1-10 6-11z" fill="#67BE0E"/>
<path transform="translate(799,315)" d="m0 0h8l5 4 8 16 7 16 2 5v10l-5 4-4 4-8-7-8-15-8-22-1-5v-8z" fill="#023224"/>
<path transform="translate(1058,964)" d="m0 0 6 1-5 5-8 6-10 10h-2v2l-11 8-3 2-5 1-11-11-7-8-3-4v-2l12-3 30-6h10z" fill="#69BE10"/>
<path transform="translate(241,1105)" d="m0 0h42l5 3 3 5-1 6-5 5-3 1h-44l-5-5-2-5 1-6 2-3z" fill="#09382A"/>
<path transform="translate(1273,513)" d="m0 0 7 1 2 3v7l-17 4-16 6-11 7-10 9-6 5-5 6-6 4h-5l-2 5h-1l1-7 6-12 8-10 3-1v-2l14-10 13-8 11-4z" fill="#F1F5E6"/>
<path transform="translate(986,548)" d="m0 0 1 4-3 7-6 20-6 17-5 15-4 8-4 14-12 36-7 20-5 17-3 8-5 14-4 10-3 6-3 4h-2v6l-3 2h-3v-6l5-16 3-7 3-5 5-12 3-6 3-3 2-11 3-2 5-19 2-2 2-8 4-11 3-12 2-6 5-12 3-9 4-6 5-16 3-6 2-9v-12l7-9h2z" fill="#F7FAE4"/>
<path transform="translate(652,978)" d="m0 0h11l5 5 1 5-4 4-7 1h-18l-4-1v-2l-5 2-5-1-3-3h-19l-17 3-13 4-2 2-12 3-12 5-11 3h-3v2l-5 2-1 6-4 6-3 6-2-1 9-20 7-8 11-5 15-4 47-8 28-3z" fill="#B5D2B4"/>
<path transform="translate(1028,891)" d="m0 0h4l1 3-1 6-1 17h-6l-7 2h-33l-6-3-6-11 20-1 12-4 14-7z" fill="#B5D2B6"/>
<path transform="translate(542,691)" d="m0 0h7l5 10-1 13-4 10-8 9-11 6-9 3-6 1h-24l-11-4 1-2 33-7 13-4 9-6 4-7 2-6z" fill="#F3F5E7"/>
<path transform="translate(336,454)" d="m0 0 10 1 4 5-2 5-21 8-9 5h-2l-2 4-5 8-3 4-2 5-4 2-5-11 1-8 4-8 10-10 10-6 9-3z" fill="#12C7A4"/>
<path transform="translate(442,993)" d="m0 0h1v26l15-4 32-7 11-4h3v17l-2 2-3-1-31 6-5 1-14 1h-10l-1-1v-6l3-3z" fill="#F4F6E9"/>
<path transform="translate(681,1090)" d="m0 0h3l-1 5-9 19-7 19-4 14-1 6-2 1h-43l1-7 6-16 5-1h4l16 2-2 2 2 2v4l1 3-1 4h2l-1 3h-5l1-2-6 1-3-1v2h22l6-21 9-23-1-3-6 4-1 2h-2l-1 2-1-3 2-7 4-4h5l1-2 1-1h2v-2h-5v-1h7z" fill="#57A61E"/>
<path transform="translate(874,997)" d="m0 0h6v2l-27 6-36 9-27 5-36 8-40 8-42 9-25 5-49 6-21 5-21 6-38 8h-6l3-3 32-7 19-4 23-7 26-4 14-1 38-6 29-7 26-5 29-6 25-5 21-5 23-4 26-7 26-5z" fill="#012F11"/>
<path transform="translate(1267,808)" d="m0 0 2 1-7 7-6 4v-2l-8 7-10 10-6 5-7 1-5-8-8-18 1-5 1-1h11l13 5 6-1z" fill="#66BD0E"/>
<path transform="translate(723,457)" d="m0 0 4 1 10 14 8 16 2 5v3l-22 1h-15l-1-3 7-20z" fill="#13C582"/>
<path transform="translate(319,807)" d="m0 0h7l23 3 10 5 9 8 4 2 3 3v2l-15 2-7 1h-9l-14-10-12-9-3-6z" fill="#66BD0F"/>
<path transform="translate(374,912)" d="m0 0 2 2v89l-3 5-11 11-4-2-6-20v-7l2 4 5 16 3 3 5-3 3-3h2l1-3v-88l-7 3-11 7-12 9-13 11-18 18-6 5-7 8-14 14h-2l-2 4-14 15-9 11-8 10-9 11-4 6h30l9-1 1-30 3-6 3-2 6-1 5 1v1l-11 2-3 6-1 5-1 27-10 1h-29l-6-2 4-7 8-9 11-14 11-13 18-20 8-7 9-9 7-8 8-7 15-15 9-7 10-8 15-10z" fill="#49DCBA"/>
<path transform="translate(1253,695)" d="m0 0 26 2 5 2v2l4 1 1 4-6 5-2 4v9l-7 6v2l-4 2-3-1-2-4-6-10-5-15-2-5z" fill="#B4C89C"/>
<path transform="translate(463,308)" d="m0 0h30l4 4v13l-4 4-5 1h-24l-5-3-3-4v-10l5-4z" fill="#16C8A4"/>
<path transform="translate(1024,492)" d="m0 0h15v3l-5 2-13 1-3 3-8 4-7 2 1 2-27 6h-8l-9 3-2-3 1-5 9-6 6-3 9-2 6-2 27-4z" fill="#67BE0E"/>
<path transform="translate(374,715)" d="m0 0 3 4 3 5 3 13v17l-3 12v2l8-2 9 6-1 5-3 1v2h-2l-1 4-4 6-6 3-8-1v5l-5-3-9-10 1-3 6-3 7-8 7-14 1-3v-17l-4-14-2-4z" fill="#A8E235"/>
<path transform="translate(759,590)" d="m0 0h1v12l1 9v123l-3 14-3 7-9 15-9 11-10 8-23 12-11 3-16 2h-9l-15-2-13-4-10-6-3-4 6 2 14 7 13 3h26l16-4 19-9 12-9 7-8 8-11 6-12 3-12 1-7v-31l-1-101h1z" fill="#012F0F"/>
<path transform="translate(407,399)" d="m0 0h8l3 2v6l-9 8-11 8-8 8-4 5-7 5-4-1v-11l4-9 9-10 13-9z" fill="#12C7A6"/>
<path transform="translate(306,400)" d="m0 0h13l12 5 8 6 10 11 4 6 1 3v10l-5-1-12-11-17-13-10-6-8-5 2-4z" fill="#12C586"/>
<path transform="translate(1067,387)" d="m0 0h14l16 4 8 5 5 6 1 4-14-1h-16l-2 4-3 3v-2h-11l2-1-1-4-1-5-6-5 1-5z" fill="#A7E137"/>
<path transform="translate(912,912)" d="m0 0h13v25l-1 2-19-1-5-1-1 4-1 24h-1l-1-10v-34l2-5 10-3z" fill="#B5D3B6"/>
<path transform="translate(1130,936)" d="m0 0h16l16 5v2l2 1-5 1v2h-3l-1 3-9 1v3l5 1-2 5-8 3 2 5h-2v-2l-2 1 1 4-4-1-1-5-2-2-1-3-6-5-2-11 1-3 3-1z" fill="#B4C89D"/>
<path transform="translate(448,470)" d="m0 0 2 4 1 7 6 1 3 5 2 1-1 39-2 7h-2l1 7-3-3-3-5-4-12-1-8v-42z" fill="#F7FAE5"/>
<path transform="translate(1305,837)" d="m0 0 1 3-3 7-7 6-14 8-4 1-2-1-10 3-8 1-2-1 2-10 6-7 21-5 10-3h9z" fill="#57A71E"/>
<path transform="translate(387,454)" d="m0 0h15l13 4 12 7 4 4v8h-7l-11-5-9-3-5-1-20-1-2-2v-6l3-3z" fill="#12C8A6"/>
<path transform="translate(726,298)" d="m0 0h9l13 2 1 4v10l-5 8-7 28-5 12h-1l1-10 1-11 1-2v-9l-1-5 2-7-5-2-2-6-6-1h-3l5-9z" fill="#16C483"/>
<path transform="translate(887,1180)" d="m0 0h31l5 5v7l-4 4-3 1h-29l-6-4-1-2v-6l4-4z" fill="#F3F7E9"/>
<path transform="translate(719,407)" d="m0 0 8 6 11 8 8 7 6 8 11 5-1 6h2l-2 12-4 14h-2l-6-14-10-16-6-5-3-1v-2l7 1 2-6-7-8-9-7-5-5z" fill="#4EBB5E"/>
<path transform="translate(1152 1e3)" d="m0 0h67l9 1v1l-14 1-5 2v3l15 1v1l-67 2-3-4-2-5z" fill="#A6DF3A"/>
<path transform="translate(1100,1161)" d="m0 0 3 3 11 27 4 12v3h-15l-17-5-4-2 1-2 11 4-4-2-1-2-3-1-4-5 4-2 3 4 1 2 4-1 1-1 1-13 2-3v-6z" fill="#14C8A7"/>
<path transform="translate(1065,502)" d="m0 0 3 4 4 5 5 2 7 1 6-5 1-5h1v14l-5 3h-2v2h-5v1l-6 2-6 4-8 3h-5l-3-6-3-10v-3l4 1 4-4h2v-2h2v-2h2z" fill="#B2CE81"/>
<path transform="translate(621,629)" d="m0 0h2v65l-1 22-1 59 1 5-4-4-6-13-1-9 1-20 3-16 5-12v-75z" fill="#F7FBE5"/>
<path transform="translate(1130,609)" d="m0 0 2 2 1 3 2 1 1 4v9l1 4-4 8-4 2-5-5-9-4v-2l-7-1-3-1 2-5v-2l-5-1 1-2 3-1 3-4 20-1z" fill="#B4C89D"/>
<path transform="translate(1014,254)" d="m0 0 7 6 4 5 3 9 1 7 16 2 5 3 3 7-2 9-5 5-2 1h-147l-6-8v-10l3-5 2 1-2 3v9l4 5 2 1 114 1h28l5-3 1-1v-11l-2-4-2-1-18-1-2-12-6-11-4-5z" fill="#C7DFC5"/>
<path transform="translate(299,618)" d="m0 0 3 1v2h2l1-2v2h2l1 6h2l-1 6-3 7-1 9-3 3-5-2-4 3 1 6h3v2h3l-2 4-4 1-7-14-3-12-2-9 3 2v2h5l1-7 4-2 1-5z" fill="#12C581"/>
<path transform="translate(333,717)" d="m0 0h11l8 4 6 8 3 8v12l-5 10-5 4-3-1 4-4h2l2-5 2-7-1-11-4-8-3-2-9 1-9 5-7 6-6 8v7l6 10-4-2-6-9-1-3v-13l3-7 5-6 7-4z" fill="#C7D5AF"/>
<path transform="translate(300,826)" d="m0 0 7 1 10 8 3 3v2l-24 7-3 1h-8l-20-11v-3h15l7 2h4l2-4 6-1z" fill="#5AA91D"/>
<path transform="translate(750,947)" d="m0 0h4v17l-2 5h-9l-3-1h-13l-1 1-1 29-2 7h-1l1-46 5-5 15-5z" fill="#B5D2B5"/>
<path transform="translate(1293,676)" d="m0 0h11l6 4 3 5-1 9-5 5-3 2h-13l-6-7-1-7 4-8z" fill="#033325"/>
<path transform="translate(793,430)" d="m0 0 4 2 5 8 10 30-1 4v-2l-7-1-5-5-7-8-5-2-3 2v-7l5-16z" fill="#A9E436"/>
<path transform="translate(621,716)" d="m0 0h1l1 44 2 10 5 10 7 10 7 5 18 6 18-1 18-3 9-4 16-8 9-7 9-10 7-11 5-12 4-20h1v12l-4 15-7 12-8 10-8 9-14 9-15 7-16 4h-26l-16-4-11-6-11-11-2-7z" fill="#A7E03B"/>
<path transform="translate(535,1173)" d="m0 0h91l35 1-3 2-118 1 2 6 6 10 10 13 9 12 9 10 7 8 8 8 8 7 11 9h-3l-12-9-12-11-8-8-9-11-11-14-10-13-8-13-2-5z" fill="#45D9B6"/>
<path transform="translate(759,1054)" d="m0 0h10l14 2 15 5 17 9 13 11 14 14 9 14 6 13 4 15 2 10v5l-3-4-5-22-5-12-6-11-18-20-10-8-15-9-10-4-10-3-19-2-21 3-15 4-21 11-6 4-6 2v-2h2v-2l20-12 12-5 15-4z" fill="#012F10"/>
<path transform="translate(824,624)" d="m0 0 4 2 1 6 1 10-2 5-1 7-1 30-1 8v14l-1 11-1 43-2 1v-123l1-13z" fill="#F5F7EB"/>
<path transform="translate(1132,504)" d="m0 0 7 1 9 7 9 9 8 7 8 9 8 16 2 8v11l-2-4-4-16-2-6-4-2v-2l-4-2-7-8v-2h-2v-2l-4-2-1-3-5-2-5-4v-2l-3-1v-2l-7 1-1 9-2 3v8l-4-1-1-2v-17l3-6z" fill="#51DEBC"/>
<path transform="translate(375,504)" d="m0 0h2l11 24 8 20 5 13 3 15-1 4-3-3v-2l-4-2-5-4-12-7-12-6-16-4-7-1h-20l-14 3-16 8-10 9-12 12 2-5 11-12 8-6 15-8 12-4h30l9 3 11 2 9 5 11 7 4 2h4l-2-8-6-13-3-9-2-8-5-12-5-10z" fill="#DAE2C8"/>
<path transform="translate(1029,700)" d="m0 0h11l3 5 9 22v2l18-5 23-5 4 1-3 2-21 5-12 3h-10l-4-5-8-20-1-1h-13l-25 4-25 5-2 2-5 17-3 11-3 3-27 7h-7v-2l16-4 15-3h3l4-17 5-15 3-2 34-7z" fill="#012F10"/>
<path transform="translate(1208,687)" d="m0 0 7 1-5 4-15 10-7 8-5 4h-3l2 11 2-3h2l2-4 4-3-2 7-3 8-2 1-1 6 1 4-3-1-4-18-5-11 2-6 5-7 25-10z" fill="#B3CF83"/>
<path transform="translate(591,391)" d="m0 0 4 1 5 8 4 12v5l-9 6-8 7-4 4h-2v-9l4-16z" fill="#12C8A5"/>
<path transform="translate(766,1196)" d="m0 0h7l6 5 5 8 18 1h43l5-3 4-3h7l5 4 4 7v7l-4 5-11 5-9 1h-57l3-2 59-1 10-3 6-5v-7l-4-6-2-2h-7l-5 5-4 1h-50l-11-1-5-4-5-8h-8l-4 4-1 3v8l3 5 8 7 15 4v1h-9l-9-4-8-7-3-5v-9l3-6z" fill="#45DBB9"/>
<path transform="translate(825,443)" d="m0 0 2 3 5 11 1 3 1 7v8h2l-1-10 4-1 8 6 8 1-1 2 3 1-2 4-5 5-3 4-9-1 1 4 9-1 2-4 9-9 4-2v3l-13 12-5 5-8 2-2-6-5-26-5-16z" fill="#12C8A7"/>
<path transform="translate(504,778)" d="m0 0h8l5 5 13 19 11 14 7 13 11-1 35-9h7l-4 3-16 4-21 5-12 1-6-7-5-9-10-12-4-6-9-13-3-3h-12l-16 3v55l-1 5h-1l-1-19v-43z" fill="#012F10"/>
<path transform="translate(1162,389)" d="m0 0h19l2 1v5l-6 5-18 4-15 3h-5l-1-4 7-8 8-4z" fill="#A3DF36"/>
<path transform="translate(608,984)" d="m0 0h17v1l-7 2-14 1-17 3-13 4-2 2-12 3-12 5-11 3h-3v2l-5 2-1 6-4 6-3 6-2-1 9-20 7-8 11-5 15-4z" fill="#B7D2B3"/>
<path transform="translate(926,484)" d="m0 0h14l6 5 1 2v6l-4 6-4 2-10-1-10-5-1-6 3-5z" fill="#023224"/>
<path transform="translate(342,650)" d="m0 0 4 1 9 9 3 7v6l-8 3-5 1-1-2-7-2-3-1-1-5-2-3 1-5z" fill="#12C581"/>
<path transform="translate(734,525)" d="m0 0h24l23 4 12 3 14 1v2l3 1-1 3-15 3h-32l6-3-1-8-1-2-9-2-23-1z" fill="#65BB0F"/>
<path transform="translate(1102,421)" d="m0 0 6 2 1 4-9 3-13 11-8 7-6 6h-4v-8l4-8 8-9 8-5z" fill="#A8E03F"/>
<path transform="translate(537,270)" d="m0 0 3 1-6 2-2 4-9 9h-2l-2 25-2 3v7l4 6 4 2 75 1 5 1h20l5 1v1l-42 1h-58l-9-3-7-8v-3h-2v-5l5-8 1-17 4-8 5-5 8-6z" fill="#C8E0C6"/>
<path transform="translate(681,1090)" d="m0 0h3l-1 5-9 19-7 19-4 14-1 6-2 1h-43l1-7 6-16 3-1-3 10-3 9 1 1h37l6-21 9-23-1-3-6 4-1 2h-2l-1 2-1-3 2-7 4-4h5l1-2 1-1h2v-2h-5v-1h7z" fill="#56A71F"/>
<path transform="translate(803,1172)" d="m0 0h91l98 1-1 6-14 21-8 10-3 3-3-1 7-7 7-10 11-17 1-2h-76l-22-1v-2h-88z" fill="#39D6B4"/>
<path transform="translate(852,925)" d="m0 0h7v8l-2 10-2-3h-8l-12 6-4 4-2 12h-1v-23l3-6 12-6z" fill="#B5D2B6"/>
<path transform="translate(848,1086)" d="m0 0 25 1v2l10 2 1 4-5 3v-4l-13-2h-22l3 7 6 9 6 12 3 9h3l2-5h1l-1 29h-3l-4-16-4-15-8-16-7-11-3-4 1-3z" fill="#66BD0F"/>
<path transform="translate(1166,619)" d="m0 0h2l-1 6-11 26-10 29-7 13-2 2h-3l4-18 6-17 6-9 8-16 4-9z" fill="#12C7A5"/>
<path transform="translate(1230,598)" d="m0 0 8 1 19 8 13 9 9 10-1 2-13-5-6-4-7-3-21-11-1-1z" fill="#F0F5E6"/>
<path transform="translate(336,454)" d="m0 0 10 1 3 3-1 3-4-3-11-1-11 4-6 4-2 4-9 6h-2v5l5 1 5-2 3-1-2 4-5 8-3 4-2 5-4 2-5-11 1-8 4-8 10-10 10-6 9-3z" fill="#13C8A4"/>
<path transform="translate(374,912)" d="m0 0 2 2v89l-3 5-11 11-4-2-6-20v-7l2 4 5 16 3 3 5-3 3-3h2l1-3v-88l-7 3-11 7-12 9-13 11-18 18-2-1 15-16 7-7 9-7 10-8 15-10z" fill="#40D9B7"/>
<path transform="translate(1071,284)" d="m0 0h13l6 7-1 7-8 7-7 1-4-2-4-7v-9z" fill="#19C9A6"/>
<path transform="translate(502,776)" d="m0 0h10l5 4 10 14 18 24 4 8 12-1 27-7 10-2-1-4-12-15-10-14 3-1 14 20 11 14v2l-36 9-13 3h-6l-8-14-13-17-13-19-2-1h-8l-10 2h-8l2-2z" fill="#98D832"/>
<path transform="translate(1142,422)" d="m0 0h12l9 5 8 7 6 10v7l-5-1-8-6-12-12-9-6z" fill="#A2DE35"/>
<path transform="translate(1224,939)" d="m0 0 13 1 11 3 9 4-2 1-1 2-3-1v-2l-3 1-9-4-1-1h-17l-13 4-10 5-10 8-7 11-4 10 4 1 27 1 18 2v1h-54l3-10 6-11 9-10 8-7 12-6zm19 4m5 2m4 1v2l2-1z" fill="#BAC992"/>
<path transform="translate(494,387)" d="m0 0h4l-1 3-11 6-7 6-10 19-1 10 1 3h-2v15l-6 4h-2l2-20 2-13 7-14 9-10 8-6z" fill="#F1F4E5"/>
<path transform="translate(1251,813)" d="m0 0h6l-5 8-14 14-6 5-7 1-3-4 1-6 8-5 7-8 8-4z" fill="#49A52C"/>
<path transform="translate(559,577)" d="m0 0 2 1-9 7-13 6-10 4 1 6 3 5v2l28 5 4 2h15v2h-17l-20-3h-21l-1-9v-11l8-3 19-7z" fill="#9FD93C"/>
<path transform="translate(628,537)" d="m0 0h70l23 1h43l3-1-1 4-4 1h-18l-35-1-82-1z" fill="#012F10"/>
<path transform="translate(1035,552)" d="m0 0h2l11 30 8 20 6 14 5 16 11 25 6 15 6 12 3 9 8 20v6l-3 1 1-3-11-28-13-31-11-26-8-23-16-40-5-15z" fill="#013012"/>
<path transform="translate(1132,315)" d="m0 0h1l1 12v6l2 5-1 4v-2h-16l-6-5-2-5h2v-3l5-4 13-4z" fill="#67BE0E"/>
<path transform="translate(511,1076)" d="m0 0h1l3 33 4 18 7 25v2l11-1h44l5 1-2 2h-58l-4-4-8-29-3-15-1-30z" fill="#012F10"/>
<path transform="translate(1230,536)" d="m0 0h3l-1 6-2 6-8 7-5 6-6 4h-5l-2 5h-1l1-7 6-12 5-5 4-2zm-9 2 2 1-2 1zm-2 2 2 1-6 5 2-4z" fill="#C8E1C7"/>
<path transform="translate(606,1198)" d="m0 0h7l7 6 4 5 29 1 28-2 11-3-3 3-8 3-9 1h-48l-6-5-4-6h-9l-4 6v9l7 8 7 4 5 1 48 1v1l-26 2h-14l-13-2-10-6-6-7-1-3v-7l3-6z" fill="#44DAB9"/>
<path transform="translate(385,852)" d="m0 0h16l5 2-1 3-22 4-6 4-5 6-2 4v8l2 6v4l-14 7-22 16-10 8-2-1 11-10 15-11 6-4 10-6h3l-2-8v-10l6-10 11-8h2z" fill="#45DAB8"/>
<path transform="translate(464,582)" d="m0 0 6 2 2 2-5 5h-2l-1 7-4 6-7 14-1 4 4 1-7-1-3-1v-3h-2l-1-4 2-5 2-1 1-3 3-2 2-5 5-5 5-10z" fill="#B4C89D"/>
<path transform="translate(1104,333)" d="m0 0 6 5 10 3h14l1 1-1 7-7 6h-10l-5-3-5-8-3-8z" fill="#043522"/>
<path transform="translate(1169,663)" d="m0 0h1v5l-3 8-2 7 1 7-1 5 1 7 5 5h-3l-6-2-11-2-1-3 8-16 5-12 2-5 4-1z" fill="#CAD8B7"/>
<path transform="translate(751,512)" d="m0 0h54l19 1 1 2-130 1 1-2 5-1z" fill="#013016"/>
<path transform="translate(398,653)" d="m0 0h2l8 17 1 3v14l-4-1-7-9-11-9v-3h8z" fill="#4CBD67"/>
<path transform="translate(225,714)" d="m0 0h30l16 4 16 5 7 1 5-9 1 2-5 11-4-1-23-7-16-3h-23l-16 4-10 6-6 7-3 7-2 7v17l2 10 4 12-1 3-6-15-2-9v-17l4-13 7-9 8-6 11-5z" fill="#DDE5CF"/>
<path transform="translate(604,537)" d="m0 0h21l-3 2-22 2h-15l-2 5-6 12-8 10-11 11-12 7-19 7-7 1 1-3 24-8 9-5 9-8 9-11 3-4 7-14 6-3z" fill="#012F0F"/>
<path transform="translate(537,548)" d="m0 0h13l4 2-2 5-5 5-7 6-4 1-5-3-1-2 1-10z" fill="#67BE0E"/>
<path transform="translate(353,573)" d="m0 0 7 1 16 8 8 5v2l5 2 15 15 11 14 7 11v3l-11 6-4 2 2-4 5-7v-6l-6-9-3-3-3-5-15-14-14-9-6-4-13-6z" fill="#AFD28F"/>
<path transform="translate(1276,749)" d="m0 0h2l-1 3-17 10-12 9-11 9-10 9-14 13-5 4 1 6 14 30-1 4-12-23-5-12v-6l4-4h2v-2l10-8 5-5 4-2 2-4 12-10h2v-2l15-10z" fill="#012F11"/>
<path transform="translate(783,593)" d="m0 0 1 3-2 23-3 7-5 4h-3v-13l2-7 2-13 5-3z" fill="#F7FAE5"/>
<path transform="translate(785,1251)" d="m0 0h11l6 3 1 1-1 7-3 2h-17l-4-3-2-7z" fill="#F3F7E9"/>
<path transform="translate(660,583)" d="m0 0h12l6 3 3 3v2l-5-2-3-2h-13l-11 1-19 4-20 3-13 5-8 7-4 5-2 4-1-4 6-9 8-7 16-5 35-6z" fill="#012F10"/>
<path transform="translate(404,400)" d="m0 0h10v1l-10 2-8 5-9 7-4 6 2 6 3 2 8-8h2l-2 4-10 11-7 5-4-1v-11l4-9 9-10 13-9z" fill="#4DDDBA"/>
<path transform="translate(447,665)" d="m0 0h3l-1 14-1 81-1 18h-1l-1-20v-69l1-21z" fill="#7DCA1C"/>
<path transform="translate(1015,506)" d="m0 0h20l7 4 2 3-2 2v-2l-5-2-6-2h-10l-22 4-9 2-17 4-11 4h-2l-2 5-6 7-1-2 7-11 5-4 10-3 31-7z" fill="#012F10"/>
<path transform="translate(542,691)" d="m0 0h7l5 10-1 13-4 10-8 9-4 2 2-5 5-4v-15l1-10-2 4z" fill="#F3F8E1"/>
<path transform="translate(997,330)" d="m0 0 7 1 4 5 1 7-6 7-6-1-5-3-2-5 1-6z" fill="#043423"/>
<path transform="translate(659,742)" d="m0 0 4 4 2 5 1 5 4 2 3 2h17l7-4h9l4-4h2l-1 3h-2l-1 3-15 6-7 2h-9l-13-6-3-1-4-7v-6h2z" fill="#F0F5DC"/>
<path transform="translate(1328,778)" d="m0 0h2l-2 4-10 9-11 9-11 10-10 8-14 12-10 9-16 16-3 4h-2l2-4 7-8 12-13 8-7 15-13 12-9 10-9 11-9z" fill="#012F10"/>
<path transform="translate(259,1148)" d="m0 0h5l3 4 1 9-3 7-1 1h-6l-5-4-1-2v-9l4-5z" fill="#043524"/>
<path transform="translate(1256,709)" d="m0 0h1l3 10 6 10 2 4v2l-5 1-2-2-4 5-10 6-2-1 5-4 1-2v-13l2-13 2 2z" fill="#66BD0E"/>
<path transform="translate(506,1028)" d="m0 0h2l3 6 2 1v2l4-2 2 9 12-2h8v1l-30 5-19 5-4-1 9-3 1-2h4l2-6 4-8z" fill="#CCDAB9"/>
<path transform="translate(723,605)" d="m0 0h1v49l1 28v45h-1v-33h-2l-3-20 1-18v-11l2-13z" fill="#DEECBD"/>
<path transform="translate(658,612)" d="m0 0h1l1 112 1 15-3-3-1-11v-110z" fill="#012F0D"/>
<path transform="translate(228,897)" d="m0 0 2 1-8 9-10 15-8 15-8 24-5 22-2 14v15l4 20 2 5-1 3-3-6-2-6-2-12-1-8v-9l1-11 1-2 1-9 4-16 3-8 4-13 8-15 6-11 2-3h2l2-5z" fill="#DAE2CA"/>
<path transform="translate(358,577)" d="m0 0 9 3 6 4 11 7-12 3v2h-5l-5-5-5-8v-5z" fill="#67BE0E"/>
<path transform="translate(352,851)" d="m0 0h44v1l-11 1-33 1-27 5-23 8-13 7-5 4-2-1 5-5 10-6 15-6 17-5z" fill="#36D5B2"/>
<path transform="translate(917,528)" d="m0 0 19 1v1l-16 1-26 6-35 7-13 4-2-1 3-3 26-7 36-7z" fill="#012F0F"/>
<path transform="translate(908,1127)" d="m0 0h8v1l-9 2-5 5-3 7-3 11-1 1h-10l1-15 3-11h1l1 14h3v-2l2-1 3-5 5-5z" fill="#49A42D"/>
<path transform="translate(236,808)" d="m0 0 7 1 6 7 7 13 12 9 17 9h8l17-5h7l-3 2-19 6-8 1-16-8-12-7v-2l-4-2-4-5-6-12-3-3-10-2z" fill="#013012"/>
<path transform="translate(429,349)" d="m0 0 5 1 4 5v7l-6 5h-6l-4-3v-9l4-5z" fill="#033323"/>
<path transform="translate(1e3 596)" d="m0 0 3 3 4 11-1 5-2-3-2-4-3 1-5 15-6 19-4 18 4 1-3 2h-5l1-7 8-29z" fill="#012F10"/>
<path transform="translate(712,439)" d="m0 0h2l-1 3-5 5-6 9-5 13-2 10-2 15-3-1-8-32 1-4 5 13 2 7 2 1 1-7 6-16 7-10z" fill="#49DBB8"/>
<path transform="translate(833,627)" d="m0 0h1l1 69 1 12-2 37-1 11-2 2v-25l1-22z" fill="#40881D"/>
<path transform="translate(867,618)" d="m0 0 2 1v49l-1 6v49l-2 4-1-34v-16l1-45z" fill="#012F11"/>
<path transform="translate(447,760)" d="m0 0h1l1 14v37l-2 26-2 7h-1v-16l1-45 1-5z" fill="#357821"/>
<path transform="translate(423,1094)" d="m0 0 4 1-11 4-8 2-5 2h-3v2l-21 6-9-3-9-1v-1h12l5 2 5-1 4-5-6-3 2-1h19z" fill="#CBD6B6"/>
<path transform="translate(1320,715)" d="m0 0h17l11 1 12 5 6 3 7 6 4 8 1 8v26l-1 9-3 7-2 5-1-3 3-9 1-6v-32l-4-11-5-5-12-6-14-3-25-1v-1z" fill="#E7ECDB"/>
<path transform="translate(757,725)" d="m0 0h1v12l-4 15-7 12-8 10-8 9-14 9-15 7-9 2 1-3 12-4 20-11 10-9 10-13 6-13 3-11z" fill="#95D731"/>
<path transform="translate(408,753)" d="m0 0h1v34l-1 42-1 2-5-1 3-2v-41l1-27z" fill="#94D72B"/>
<path transform="translate(1171,711)" d="m0 0 4 2 5 12 4 19 8 22 4 14v5l-3-4-10-30-3-8-6-24-3-6z" fill="#053511"/>
<path transform="translate(1164,322)" d="m0 0 5 1 2 5v5l-6 5-5 1-6-5-1-5 4-4z" fill="#063820"/>
<path transform="translate(654,1078)" d="m0 0 3 1-4 1v2l-16 8-11 8-1 2h-2l-2 5-7 12-10 23-4 12-2 2 1-9 6-16 8-17 10-14 10-9 18-10z" fill="#013014"/>
<path transform="translate(848,1103)" d="m0 0h2l6 11 5 11 1 4h3l2-5h1l-1 29h-3l-4-16-4-15-8-16z" fill="#64BB13"/>
<path transform="translate(407,399)" d="m0 0h8l3 2v6l-8 7h-6-2l-4 2v-8l4-5 5-3z" fill="#12C583"/>
<path transform="translate(590,989)" d="m0 0 4 1-3 2-3 3-9 1-9 4-10 2-7 6-5 3h-16l2-1v-2l19-6 13-5 7-2 10-4z" fill="#CBDAB9"/>
<path transform="translate(524,639)" d="m0 0h29l12 4 9 6 8 8 1 4-10-3-2-7v-2l-6 1-4-1-3-4-6-1h-5v-2l-7-1-16-1z" fill="#FAFBF8"/>
<path transform="translate(793,430)" d="m0 0 4 2 5 8 10 30-1 4v-2h-2l-9-27-3-4h-5l-5 9-2-1 2-9 4-8z" fill="#AAD078"/>
<path transform="translate(729,604)" d="m0 0h5l-2 2-4 1-1 10-1 22v24l1 41v15h-1l-1-12-2-53v-15l1-34z" fill="#6EC212"/>
<path transform="translate(1076,328)" d="m0 0h7l5 4v6l-4 5-5 1-5-3-3-5 1-5z" fill="#043520"/>
<path transform="translate(986,548)" d="m0 0 1 4-3 7-6 20-6 17-3 8-2-1 1-7 4-11 3-9 1-4v-12l7-9h2z" fill="#F7FBE5"/>
<path transform="translate(625,1130)" d="m0 0h2l-3 10-3 9 1 1h37l3-9h1l-1 12-2 1h-43l1-7 6-16z" fill="#62B624"/>
<path transform="translate(434,691)" d="m0 0h1l1 89 1 5-1 36v21h-1l-1-7z" fill="#FBFCF5"/>
<path transform="translate(550,1038)" d="m0 0 1 3-3 3-21 3-27 6-24 5-6 1h-8l2-2 31-6 14-4 38-6z" fill="#E7ECD9"/>
<path transform="translate(825,443)" d="m0 0 2 3 5 11 1 3 1 7v8h2l1 15 11-1 2-4 9-9 4-2v3l-13 12-5 5-8 2-2-6-5-26-5-16z" fill="#1FCDAA"/>
<path transform="translate(336,454)" d="m0 0 10 1 3 3-1 3-4-3-11-1-11 4-6 4-2 4-9 6h-2l-2 4-4 10h-1v-7l4-8 10-10 10-6 9-3z" fill="#56DCB9"/>
<path transform="translate(924,1084)" d="m0 0 4 1 9 12 5 8h-3l-5-5-14-6-6 1 2-6z" fill="#4AA42B"/>
<path transform="translate(1060,390)" d="m0 0h1l2 6 8 3 15 2 10 2v1l-15 1-2 4-3 3v-2h-11l2-1-1-4-1-5-6-5z" fill="#59AB1B"/>
<path transform="translate(799,315)" d="m0 0h8l5 4 8 16 3 9h-3l-9-21-1-3-6-2h-5l-1 1 1 9 7 19v5h-2l-8-22-1-5v-8z" fill="#012F0F"/>
<path transform="translate(374,912)" d="m0 0 2 2-1 6-2-1v-3l-7 3-11 7-12 9-13 11-18 18-2-1 15-16 7-7 9-7 10-8 15-10z" fill="#45DBB9"/>
<path transform="translate(1251,813)" d="m0 0h6l-3 5-12 3-6 7-1 4h-2v2l-7 3h-4l1-6 8-5 7-8 8-4z" fill="#58A71D"/>
<path transform="translate(807,277)" d="m0 0h11l8 4 4 4-1 2-6-5-5-2-96 1-7 3-12 13v-3l7-9h2v-2l7-4 35-1h45z" fill="#D1DCC2"/>
<path transform="translate(930,1086)" d="m0 0 5 4 8 11 10 13 7 8 14 20 5 7v2h-2l-10-13-8-12-11-13-8-10-9-13z" fill="#012F11"/>
<path transform="translate(1187,867)" d="m0 0h11l4 2 1 5-2 1-7-3h-14l-10 1-2 1h-9l-8-1 2-2z" fill="#B6C9A0"/>
<path transform="translate(1077,955)" d="m0 0h5v2l-29 7-33 6-9 2h-9l3-2 16-3 11-3 15-2z" fill="#012F11"/>
<path transform="translate(496,734)" d="m0 0 4 1-1 1 7 2v2h18l-3 2-6 1h-24l-11-4 1-2z" fill="#D1DDBD"/>
<path transform="translate(864,686)" d="m0 0h1l1 7v60l1 11-5 2-21 3h-8l4-2 16-3 10-1z" fill="#8CD133"/>
<path transform="translate(335,978)" d="m0 0h9v1l-10 3-2 4v12l5 22 3 11-8 7-12 5-9 1 3-2 13-4 9-7-1-8-5-18-1-6v-14l4-6z" fill="#3ED8B5"/>
<path transform="translate(1181,966)" d="m0 0 1 3-5 11 4 2 27 1 18 2v1h-54l3-10 5-9z" fill="#B4D084"/>
<path transform="translate(1043,704)" d="m0 0 4 5 6 15v2l26-7 12-2h5l-2-11 3 3 3 9-12 3-30 7-6 1-9-22z" fill="#96D732"/>
<path transform="translate(1036,332)" d="m0 0h6l5 4 1 7-4 4-8-1-3-4v-6z" fill="#063720"/>
<path transform="translate(514,1080)" d="m0 0h1l2 28 5 22 5 18v3l23 1v1l-13 1h-11l-5-16-5-18-2-11z" fill="#9AD931"/>
<path transform="translate(1254,818)" d="m0 0h2l-1 4-13 12-8 8-7 6h-2l-13-27 1-2 3 3 8 17 4 1 5-2 13-12z" fill="#94D83D"/>
<path transform="translate(484,782)" d="m0 0h6v2l-7 1v55l-1 5h-1l-1-19v-43z" fill="#013012"/>
<path transform="translate(533,733)" d="m0 0h4l-1 3-10 4-17 1-3-1v-2l-8-1 2-3h22l8 1z" fill="#F9FCE7"/>
<path transform="translate(375,504)" d="m0 0h2l11 24 8 20 5 13v8l-3-4-4-10-5-12-2-6-2-8-5-12-5-10z" fill="#E7ECD4"/>
<path transform="translate(731,435)" d="m0 0 5 1 8 7 11 17h3l4-13h2l-2 12-4 14h-2l-6-14-10-16-6-5-3-1z" fill="#59DBB4"/>
<path transform="translate(625,627)" d="m0 0 3 1-2 3-1 62-1 20-2 1v-20l1-62z" fill="#65BB0F"/>
<path transform="translate(684,1092)" d="m0 0h1l-1 7-4 9-6 15-5 12-4 13-1 5h-2l1-10 8-24 8-18z" fill="#013012"/>
<path transform="translate(656,608)" d="m0 0h1v11l-2 2h-10l-1 2-3-1-1 2-6 1-9 2 2-4 5-3 9-3h3l1-3 7-1 2 1 1 3z" fill="#F2F7E0"/>
<path transform="translate(804,1259)" d="m0 0 4 1 1 2v6l-4 3h-20l-3-1-1-4 18-1 4-4z" fill="#033325"/>
<path transform="translate(302,805)" d="m0 0 7 1 7 6 18 13 10 7h20l-1 2-4 1h-14l-11-6-11-8-21-15z" fill="#023011"/>
<path transform="translate(499,545)" d="m0 0h1v28l-6-1-16-8-6-4-6-5-2-4 4 2 8 7 14 7 5-1 1-2 1-13z" fill="#98D635"/>
<path transform="translate(1033,898)" d="m0 0h1v45l-17 3-17 4-7 1-5-8 1-3 4 6v2h6l10-3 8-3 9-2h6z" fill="#D3E2C5"/>
<path transform="translate(766,1196)" d="m0 0h7l6 5 6 9 2 2-5-1-4-5-4-6h-8l-4 4-1 3v8l3 5 8 7 15 4v1h-9l-9-4-8-7-3-5v-9l3-6z" fill="#3DD8B6"/>
<path transform="translate(628,1008)" d="m0 0 3 3 5 11 10-1 26-5 7-2 1-1-1-5 3 1 2 7-7 2-35 7-6 1-5-7-3-7z" fill="#E3E8D4"/>
<path transform="translate(756,592)" d="m0 0h1v10l-1-3-10 2h-6l-1 2-9 1-1 1h-5l2-1 2-4 5-3 11-1 4-2 7 1z" fill="#F2F7DF"/>
<path transform="translate(842,577)" d="m0 0m-5 1 7 1-3 2-8 1-1 2-17 3-7 2-16 2-5 1 2-3 17-4 10-2 10-3z" fill="#F3F8E1"/>
<path transform="translate(939,695)" d="m0 0h1l-1 10-3 10-6 12-10 22-1-3 6-17 5-11 3-9 3-11z" fill="#5FAC20"/>
<path transform="translate(290,590)" d="m0 0 4 1 10 11 7 8 8 8 14 16 2 1-1 3-12 9-7 5-2-1 8-7 10-7-2-4-9-10-10-10-7-8-3-3v-2h-2l-6-8-3 2z" fill="#3DD7B2"/>
<path transform="translate(810,472)" d="m0 0 3 1 6 21v3l-45 1v-9l3-9 1 4-1 3v8h39l-4-16-2-4z" fill="#12C8A7"/>
<path transform="translate(621,629)" d="m0 0h2v65l-1 22h-1l-1-85z" fill="#DDECBB"/>
<path transform="translate(1185,627)" d="m0 0 4 1 1 3-1 3-4 4-6 11-4 4-4 1 3-9 4-9h2l4-8z" fill="#B8D4B8"/>
<path transform="translate(423,313)" d="m0 0h6v2h2l1 2v8l-4 3h-5l-3-3v-9z" fill="#19C9A7"/>
<path transform="translate(568,657)" d="m0 0 8 6 5 5 5 1 3 1 2 7v14l-2-2-1-6-4-4-12-16-4-4z" fill="#ECF1D8"/>
<path transform="translate(1014,254)" d="m0 0 7 6 4 5 3 9 1 7 16 2 5 3 3 7-1 6-3 1-2-13-3-2-18-1-2-12-6-11-4-5z" fill="#C4DCC0"/>
<path transform="translate(966,1139)" d="m0 0h3l10 13v2h-26l-33-2v-1l52-1-2-5z" fill="#66BC11"/>
<path transform="translate(968,715)" d="m0 0h1l-1 8-5 19-1 2-36 8h-6l-1-2 22-5 18-3 3-6 5-19z" fill="#94D62F"/>
<path transform="translate(703,524)" d="m0 0 31 1 23 1 7 2 2 4-9-3-34-1-27-2v-1z" fill="#012F10"/>
<path transform="translate(288,1008)" d="m0 0 6 1v1l-11 2-3 6-1 5-1 27-10 1h-26l-1-2 26-1 9-1 1-30 3-6 3-2z" fill="#4EDEBC"/>
<path transform="translate(507,685)" d="m0 0 13 1v1l-12 1-2 1-15 2-7 2-2 27h-1l-1-11v-18l7-2z" fill="#012F0D"/>
<path transform="translate(1134,443)" d="m0 0 5 1 12 9 9 9h-3l-7-7-10-7h-3l-1 24 2 1-1 2 2 4 2 2h-5l-2-2z" fill="#F3F6E8"/>
<path transform="translate(817,1013)" d="m0 0 4 1-2 2-24 4-36 8h-6l1-2 36-8z" fill="#8ED12D"/>
<path transform="translate(916,561)" d="m0 0m-4 1 7 1-4 2-20 5-16 3-2 1-8 1-3 1 1-4 11-3 23-4z" fill="#F0F6DD"/>
<path transform="translate(385,852)" d="m0 0h16l5 2-1 3-22 4-5 2 2-4 4-3h2z" fill="#59DCBA"/>
<path transform="translate(1333,754)" d="m0 0 3 1-10 9-10 8-10 9-14 11h-3l1-3 9-7 17-14 9-8z" fill="#013013"/>
<path transform="translate(751,512)" d="m0 0h54l19 1 1 2h-23l-53-1z" fill="#012F0C"/>
<path transform="translate(425,310)" d="m0 0 7 1 4 6 1 4-4 7-4 2h-9l-2-6v-9l3-4zm-2 3-3 3v9l3 3 7-1 2-2v-8l-1-2h-2v-2z" fill="#C6DEC4"/>
<path transform="translate(357,784)" d="m0 0 4 2 7 8 9 12 9 15 1 6-3-1-5-10-7-10-6-9-4-5-4-4z" fill="#012F10"/>
<path transform="translate(929,906)" d="m0 0h1v57l-9 3-15 3-3-1 3-2 21-5z" fill="#E2E4CF"/>
<path transform="translate(361,479)" d="m0 0 4 4 1 5-4-4-6 8-4 11-2 14-5 10-3 3-9 1v-1l9-3 3-5 4-19 4-12 7-11z" fill="#E3EAD1"/>
<path transform="translate(302,943)" d="m0 0h2l-2 4-8 7-34 34-6 7-2-2 14-14 7-8 16-16 8-7z" fill="#42D9B3"/>
<path transform="translate(219,759)" d="m0 0 4 2 12 8 12 9 9 7 11 8-1 2-5-2-15-12-14-10-13-10z" fill="#012F11"/>
<path transform="translate(913,600)" d="m0 0h12l-4 2-28 5-6 2-16 3-2 5h-1v-7l6-2z" fill="#012F0F"/>
<path transform="translate(464,306)" d="m0 0h28l6 5 1 2v8l-2 2v-11l-4-2v-2l-30 1-6 4v10l1 5-4-4-1-9 5-6z" fill="#C8DCC0"/>
<path transform="translate(1e3 455)" d="m0 0 12 3 9 4 16 8 15 10 8 8 4 6-4-2-9-10-16-10-16-8-20-7z" fill="#013012"/>
<path transform="translate(595,290)" d="m0 0 3 4 2 11 36 1 6 5 1 3v9l-4 3 2-9-2-7-4-1-34-1-3-3-2-10z" fill="#B4E4CC"/>
<path transform="translate(560,1212)" d="m0 0 4 2 9 11 12 13 15 14 10 8h-3l-12-9-12-11-8-8-9-11-6-8z" fill="#40D9B7"/>
<path transform="translate(410,771)" d="m0 0h1v48l-1 7-2-3v-36l1-15z" fill="#012F0C"/>
<path transform="translate(966,344)" d="m0 0 2 3 4 13 5 21 7 21 6 17h-2l-4-8-8-25-6-21-4-16z" fill="#E6EDD3"/>
<path transform="translate(857,319)" d="m0 0 7 6 8 8 7 8 15 15 7 8 15 15 4 3-1 2-12-11-15-15-7-8-14-14-7-8-7-7z" fill="#E9EFDB"/>
<path transform="translate(447,471)" d="m0 0 2 4 1 8 1 27-1 8-2-2-1-3z" fill="#EDF1E1"/>
<path transform="translate(914,1091)" d="m0 0 2 1-12 16-8 14-5 10h-1l1-9 6-11 9-12z" fill="#61B813"/>
<path transform="translate(1356,775)" d="m0 0h2l-2 9-8 16-7 11-6 9-4 7-3 2 2-6 14-22 8-16z" fill="#012F10"/>
<path transform="translate(536,646)" d="m0 0 8 1 1 2-21 1-13 3-8 1h-9l1-2 15-3 12-2z" fill="#F7FBE5"/>
<path transform="translate(690,1205)" d="m0 0 2 1-7 4-13 2h-44l-3-2h28l28-2z" fill="#53E0BE"/>
<path transform="translate(569,770)" d="m0 0 4 1 16 23 12 16 3 6-3-1-7-9-13-18-12-17z" fill="#012F10"/>
<path transform="translate(1117,307)" d="m0 0h10l4 4v4l-15-1-5 1-1 2 1-5z" fill="#104624"/>
<path transform="translate(608,586)" d="m0 0h20v1l-22 4-10 3-9 7-2 1-1-5 4-1v-2h4v-2l7-4z" fill="#58A71E"/>
<path transform="translate(1008,974)" d="m0 0h6l-1 8 4 6 3 3v3l-5-2-6-7v-2l-3-1v-2l-3 1-2-3h2l3-3z" fill="#59AA1C"/>
<path transform="translate(282,876)" d="m0 0m-2 1h2l-2 4-11 11-1 4 12 6-1 2-15-6-2-4 13-13z" fill="#4FDCB8"/>
<path transform="translate(371,714)" d="m0 0 4 4 5 13 1 5v17l-6 14-6 8h-2l10-20 2-6-1-14-5-16z" fill="#012F11"/>
<path transform="translate(1019,537)" d="m0 0h9l-1 3-10 3-11 1-17 2 3-3 18-4z" fill="#F6FAE4"/>
<path transform="translate(765,537)" d="m0 0h2l-1 4-4 1h-18l-35-1v-1l20-1 35-1z" fill="#013014"/>
<path transform="translate(454,395)" d="m0 0 1 3-6 11-2 9v13l3 14-1 4-4-9-1-6v-18l5-13z" fill="#EFF3DD"/>
<path transform="translate(210,990)" d="m0 0h16l-2 3h-12l1 26-3-3-1-9v-16z" fill="#45D9B4"/>
<path transform="translate(1286,793)" d="m0 0 2 2-16 15-11 10-7 5-2-1 8-8 8-7 8-8z" fill="#013014"/>
<path transform="translate(565,532)" d="m0 0 2 1-2 9-4 8-9 13h-2v2l-4 3-2-1 1-3 5-5 6-8 7-14z" fill="#012F0F"/>
<path transform="translate(1185,368)" d="m0 0 9 1 8 6 3 4v12h-1l-1-10-4-4-8-3-11-2v-2h-17v-1z" fill="#C8DEC1"/>
<path transform="translate(1242,750)" d="m0 0 2 1-10 8-5 5-8 7-8 8h-2v2h-2l-1 3-5 3h-2v-2l8-7 12-11 11-9 8-7z" fill="#013014"/>
<path transform="translate(479,809)" d="m0 0h1l1 25-1 11-24 5h-6l1-2 12-3 15-2z" fill="#94D632"/>
<path transform="translate(1032,698)" d="m0 0 7 1v1l-31 4-29 6h-6l2-2 28-6z" fill="#95D732"/>
<path transform="translate(445,618)" d="m0 0 6 4h8l10-1 4 2-12 3-5 1h-10l-3-6z" fill="#C9DAAF"/>
<path transform="translate(758,1119)" d="m0 0h13l10 6 1 2-4-1-7-4h-12l-7 4-7 8-3 7h-2l-1 2 2-9 7-8z" fill="#012F10"/>
<path transform="translate(825,1103)" d="m0 0 4 4 8 15 7 24v7l-3 3h-2v-2h3l-4-20-8-20-6-9z" fill="#012F10"/>
<path transform="translate(572,568)" d="m0 0 1 4-3 9-6 2-3 2h-8v-2l7-5 5-3z" fill="#58A81D"/>
<path transform="translate(317,401)" d="m0 0 8 1 11 6 8 8 9 12 1 3v10l-5-1-4-5 6 3v-7l-7-11-8-9-10-6-9-3z" fill="#46D8B1"/>
<path transform="translate(854,419)" d="m0 0 4 2 8 8 5 3 5 5 5 4 5 5 8 4 1 3h-4l-1-3-10-5-9-8-8-7-9-10z" fill="#4EBB5F"/>
<path transform="translate(751,1106)" d="m0 0h19v1l-17 2-8 3-12 11-4 5-3 4 1-8 12-12z" fill="#012F0D"/>
<path transform="translate(1116,313)" d="m0 0 15 2-1 3-16 2-5 1-1 3-2-4 2-4z" fill="#4AA52D"/>
<path transform="translate(1325,1012)" d="m0 0h34l5 3 2 4v5l-2 1-1-7-6-3-46-1v-1z" fill="#F3F5E8"/>
<path transform="translate(331,783)" d="m0 0 5 1 5 4 8 11 22 22v2l4 2-3 1-12-12-7-8-9-9-8-10-5-2z" fill="#012F11"/>
<path transform="translate(631,380)" d="m0 0h3l-2 4-16 17-3 3-1-1-2-11v-8h2l2 10 2 2 9-8z" fill="#E1E9D3"/>
<path transform="translate(669,1072)" d="m0 0 6 1-3 2-12 2-13 5-12 7-3-1 6-5 8-4h2v-2l14-4z" fill="#63B915"/>
<path transform="translate(352,990)" d="m0 0 2 4 5 16 3 3 5-3 3-3h2l2-4 1 3-13 13-4-2-6-20z" fill="#45DBB8"/>
<path transform="translate(1103,653)" d="m0 0 2 3 8 17 3 6 5-5-2 18-3-3-12-30z" fill="#EBF2DB"/>
<path transform="translate(673,537)" d="m0 0h25l23 1 8 1v1h-33l-24-1z" fill="#012F0C"/>
<path transform="translate(951,263)" d="m0 0 1 2-2 7-2 12-26 1h-26l3-2 21-1h21l5-2 1-1 1-10z" fill="#BDE1C8"/>
<path transform="translate(854,1204)" d="m0 0h7l5 4 4 7v7l-4 5-8 4h-7v-1l10-3 6-5v-7l-4-6-2-2h-7l-5 5-4-1z" fill="#39D6B4"/>
<path transform="translate(816,621)" d="m0 0h5l-2 3-20 3-19 4h-4v-2l13-3z" fill="#012F11"/>
<path transform="translate(792,402)" d="m0 0 5 4 7 3 10 8 5 7 5 10 1 8h-2l-5-14-7-10-8-6-11-5z" fill="#24CEA8"/>
<path transform="translate(618,1230)" d="m0 0h50v1l-26 2h-14l-10-1z" fill="#53E0BE"/>
<path transform="translate(847,1107)" d="m0 0h3l7 15 4 15 2 10v5l-3-4-5-22-5-12z" fill="#013012"/>
<path transform="translate(383,1112)" d="m0 0 9 3 2 1-1 3-8 4h-5v-10z" fill="#B4CF84"/>
<path transform="translate(412,1019)" d="m0 0 1 2-1 14-1 30h-2v-42z" fill="#B5CDA9"/>
<path transform="translate(1224,939)" d="m0 0 13 1 11 3 9 4-2 1-1 2-3-1v-2l-3 1-9-4-1-1h-20l-1-3zm19 4m5 2m4 1v2l2-1z" fill="#B4C184"/>
<path transform="translate(313,550)" d="m0 0h11v1l-14 3-16 8-10 9-12 12 2-5 11-12 8-6 15-8z" fill="#D0D6BB"/>
<path transform="translate(1287,1013)" d="m0 0 59 1v1l-38 1h-41v-1l19-1z" fill="#D8E5C7"/>
<path transform="translate(1205,806)" d="m0 0h2l5 13 11 23-1 4-12-23-5-12z" fill="#012F11"/>
<path transform="translate(1216,687)" d="m0 0 2 1-4 4-2 16-1 4v14l-2-2-1-26 2-7z" fill="#4CA326"/>
<path transform="translate(353,573)" d="m0 0 7 1 16 8 8 5 1 3-6-1-10-7-15-7z" fill="#B0D197"/>
<path transform="translate(888,519)" d="m0 0h6l3 2 1 4-1 1-15 1-1-4 3-3z" fill="#67BE0E"/>
<path transform="translate(1276,492)" d="m0 0 10 1 5 3-2 1-8-2-16 1-19 5-12 6-2-1 10-6 8-3 12-3 1-1z" fill="#D5DDC2"/>
<path transform="translate(304,383)" d="m0 0h14l10 1 13 7 1 2-6-2-10-4-5-1h-17l-9 3-4 5 1-5 5-4z" fill="#D9E1C9"/>
<path transform="translate(537,270)" d="m0 0 3 1-6 2-2 4-9 9h-2l-2 25-4 1 2-5 1-17 4-8 5-5 8-6z" fill="#D7E6D0"/>
<path transform="translate(966,688)" d="m0 0h16v3l-6 3h-10l-6-2 1-2z" fill="#59A91B"/>
<path transform="translate(258,1018)" d="m0 0v3l-8 10-9 11-4 6 4 1 1 2-8-1-1-2 6-8 14-17z" fill="#44DAB8"/>
<path transform="translate(624,1093)" d="m0 0h2l-1 4-9 12-6 10-1-4 3-8 7-10z" fill="#48A42D"/>
<path transform="translate(662,1141)" d="m0 0h1l-1 12h-42l3-2 36-1z" fill="#86D025"/>
<path transform="translate(502,776)" d="m0 0h10l5 4 10 14 1 3-4-2-10-15-2-1h-8l-10 2h-8l2-2z" fill="#92D52D"/>
<path transform="translate(1257,709)" d="m0 0 3 3 5 9 7 7v5l-5 1-1-4-6-9-3-7z" fill="#B2CF81"/>
<path transform="translate(1191,715)" d="m0 0 1 2-5 13-2 1-1 6 1 4-3-1-1-4v-9l3-5h2l2-4z" fill="#A6E136"/>
<path transform="translate(470,846)" d="m0 0h10l-3 2-14 3-19 4-6 1v-2l12-4z" fill="#012F10"/>
<path transform="translate(1211,720)" d="m0 0 3 4 4 6 8 3 5-6 2-7 2 3v6l-4 5-2 1h-9l-8-7-1-2z" fill="#012F10"/>
<path transform="translate(1064,627)" d="m0 0 2 2 8 19 9 22-1 2-3-4-13-31-2-5z" fill="#012F10"/>
<path transform="translate(1214,595)" d="m0 0h9l9 2-2 1v6l-10-5h-10l-1 3h-2l-1-3 4-3z" fill="#59DBBA"/>
<path transform="translate(819,528)" d="m0 0h3l-2 4-6 10-4 10-5 4-8 1 5-4 6-1 3-12 7-11z" fill="#012F11"/>
<path transform="translate(501,423)" d="m0 0h1l1 5h1v33h-1l-1 7h-1z" fill="#012F0C"/>
<path transform="translate(299,715)" d="m0 0 1 2-5 11-4-1-23-7-16-3v-1h13l8 3 8 2 8 3h5z" fill="#D0DEC3"/>
<path transform="translate(1169,409)" d="m0 0 4 1-1 2 4 2 5 5 8 9 5 10 2 5 1 14h-1l-3-14-5-12-11-13-8-7z" fill="#E4ECDB"/>
<path transform="translate(983,1074)" d="m0 0 2 3-5 15-4 6-7 5-4-2v-1l7-2 4-6 5-15z" fill="#12C7A2"/>
<path transform="translate(853,766)" d="m0 0h9l-2 2-20 4-12 2h-6l3-1v-2z" fill="#012F10"/>
<path transform="translate(787,455)" d="m0 0 1 2 5 1 7 8 4 4 6 2v2l-6-1-6-5-2-5-11-2-2 4-1-4 1-5h3z" fill="#4CBB60"/>
<path transform="translate(429,349)" d="m0 0 5 1 4 5v7h-3v-6l-4-2-3-1-2 3v8h-4v-9l4-5z" fill="#093B11"/>
<path transform="translate(404,711)" d="m0 0 5 5 1 3v37h-1l-1-10h-1v-20l-2-12z" fill="#4CB656"/>
<path transform="translate(959,977)" d="m0 0h6l2 2-3 1h-8v2l-17 6h-3l-1 9-2-2 1-8 7-3z" fill="#12C693"/>
<path transform="translate(1272,825)" d="m0 0m-1 1m-1 1m-1 1m-1 1m-1 1m-1 1 1 3-21 21-3 4h-2l2-4 7-8 12-13z" fill="#013013"/>
<path transform="translate(915,1069)" d="m0 0h3v2l-12 4-9 6-12 16-2 1 1-5 11-13 8-7z" fill="#012F10"/>
<path transform="translate(1100,429)" d="m0 0 5 1-2 2-5 3-13 11-7 7-2-1 6-8 15-13z" fill="#012F10"/>
<path transform="translate(954,1153)" d="m0 0 8 1-1 2h-43l-2-2z" fill="#012F0C"/>
<path transform="translate(755,964)" d="m0 0h1l1 37-1 1-17 3-5 1h-7v-1l27-6z" fill="#EEF3E0"/>
<path transform="translate(415,624)" d="m0 0h3l4 7v3l-11 6-4 2 2-4 5-7z" fill="#B3D88C"/>
<path transform="translate(314,573)" d="m0 0h6l-3 2-9 3 6 9 9 10 7 8 2 3-4-2-13-14-10-13 4-4z" fill="#4BD6A8"/>
<path transform="translate(825,430)" d="m0 0 4 2 3 8 3 13v5l-3-3-3-10-4-10z" fill="#12C8A7"/>
<path transform="translate(620,726)" d="m0 0h1v49l1 5-3-2-2-18 2-11z" fill="#CDDBBA"/>
<path transform="translate(374,715)" d="m0 0 3 4 3 5 3 13v17l-1 4-4 2 2-7v-17l-4-14-2-4z" fill="#8BD02F"/>
<path transform="translate(566,482)" d="m0 0h2l2 14v30l-2-2-1-23-1-10z" fill="#012F0E"/>
<path transform="translate(923,441)" d="m0 0 3 1-6 4-14 5-8 3h-3v-2l19-8z" fill="#012F12"/>
<path transform="translate(575,782)" d="m0 0h3l14 20 11 14v2l-7 1 2-3-1-4-12-15-10-14z" fill="#8DD22E"/>
<path transform="translate(1147,429)" d="m0 0 5 2 15 15 10 6v1l-7-1-3-2v-2l-4-2-12-12-5-3z" fill="#012F0E"/>
<path transform="translate(320,548)" d="m0 0h30l9 3v1h-8l-7-1-26-1z" fill="#E8EEDC"/>
<path transform="translate(1170,500)" d="m0 0 4 2 11 12 4 8 2 6-1 4-7-14-11-14z" fill="#EAEFDD"/>
<path transform="translate(788,408)" d="m0 0 3 1-8 7-6 7-8 16-2 2 1-7 8-15 5-6z" fill="#012F11"/>
<path transform="translate(843,927)" d="m0 0h6l-1 2-12 4-4 4-2 12-1 13h-1v-23l3-6z" fill="#B8CCA5"/>
<path transform="translate(293,813)" d="m0 0 8 6 14 12 5 4v2l-4-2-17-13-6-5z" fill="#012F11"/>
<path transform="translate(1050,299)" d="m0 0 1 3-5 5-2 1h-30l1-2 27-1 5-3z" fill="#C8E1C7"/>
<path transform="translate(1267,808)" d="m0 0 2 1-7 7-6 4v-2l-2-1 2-3h-4l1-3z" fill="#70C21B"/>
<path transform="translate(530,685)" d="m0 0 5 1 6 4 2 4v10l-2 5h-1l-1-15-4-4-10-3v-1z" fill="#013015"/>
<path transform="translate(610,1121)" d="m0 0 1 3-7 16-4 12-2 2 1-9 6-16z" fill="#012F11"/>
<path transform="translate(1163,892)" d="m0 0 4 5 6 13h9l9-1-4 3-11 2-5-1-8-18z" fill="#E8EDDB"/>
<path transform="translate(305,827)" d="m0 0 4 2 8 6 3 3v2l-6 1-1-4-3 1-1-2-4-2 3-2v-2l-3-1z" fill="#6BBF17"/>
<path transform="translate(693,798)" d="m0 0m-6 1h6l-1 3-6 1h-26l-4-1v-2l10 1z" fill="#A1DF34"/>
<path transform="translate(339,720)" d="m0 0h8l6 5h-3l-10 1-2-2-4 1-2 2-3-1 1-1-2-2 6-2z" fill="#B4D084"/>
<path transform="translate(729,604)" d="m0 0h5l-2 2-4 1-2 26-2 1v-29z" fill="#5EB114"/>
<path transform="translate(298,1013)" d="m0 0 2 2 1 30h7l-1 2-7 1-1-1-1-7z" fill="#3AD5B1"/>
<path transform="translate(1277,981)" d="m0 0 5 2 2 1-2 2h-15l-33-1v-1l43-1z" fill="#B9D090"/>
<path transform="translate(756,946)" d="m0 0h1v49h-1l-1-31-1-1v-15z" fill="#CADDC0"/>
<path transform="translate(1211,564)" d="m0 0 2 1-8 7-2 6 3 2v2l-6 1v-9l2-6 3-1 1-2z" fill="#4DDDBB"/>
<path transform="translate(501,538)" d="m0 0 2 3v16h-1v6h1l-1 10-2-4v-30z" fill="#012F0C"/>
<path transform="translate(999,977)" d="m0 0 7 6 12 13 3 4-2 2-9-9-9-11z" fill="#012F0D"/>
<path transform="translate(359,733)" d="m0 0 2 4v12l-5 10-5 4-3-1 4-4h2l2-5 2-7v-11z" fill="#B1C27E"/>
<path transform="translate(674,1106)" d="m0 0h1v6l-6 15-5 16-2-2 2-9 6-16z" fill="#62B916"/>
<path transform="translate(859,950)" d="m0 0 2 2v27l-5 1h-8l3-2 7-2z" fill="#F4F7E9"/>
<path transform="translate(1141,508)" d="m0 0 5 2 11 11 8 7 8 9 1 5-4-5-6-7-8-7-11-11z" fill="#94DDBE"/>
<path transform="translate(822,346)" d="m0 0 5 5 2 5v10l-5 4-4 4-1-3 6-6 1-6-4-10z" fill="#023110"/>
<path transform="translate(759,303)" d="m0 0 5 5 9 14 5 9-2 2-11-18-6-10z" fill="#013012"/>
<path transform="translate(865,753)" d="m0 0h1l1 11-5 2-21 3h-8l4-2 16-3 10-1z" fill="#8CD030"/>
<path transform="translate(190,747)" d="m0 0h1l1 18 2 10 4 12-1 3-6-15-2-9v-17z" fill="#E3E7D4"/>
<path transform="translate(495,1051)" d="m0 0m-5 1h5l-3 3-22 4h-8l2-2z" fill="#EAEFDE"/>
<path transform="translate(721,786)" d="m0 0m-2 1h2v3l-19 9-9 2 1-3 12-4z" fill="#99D932"/>
<path transform="translate(1195,775)" d="m0 0 4 4 11-3-2 4-7 6-4-1-2-5z" fill="#74C31A"/>
<path transform="translate(745,1053)" d="m0 0 8 1-4 2-15 3-7 2h-5l3-3 15-4z" fill="#6FC118"/>
<path transform="translate(862,474)" d="m0 0 2 2-15 14-4 4-7-2 1-2 9-1 2-4 9-9z" fill="#12C7A2"/>
<path transform="translate(476,423)" d="m0 0h2l-2 17-3 22h-1v-13l3-22z" fill="#7EC726"/>
<path transform="translate(281,627)" d="m0 0h1l2 10 5 17 5 10-1 3-8-16-4-14z" fill="#2DD1AC"/>
<path transform="translate(328,570)" d="m0 0h16l10 2-2 10-2-4v-5h-28l2-2z" fill="#4DCD8E"/>
<path transform="translate(404,400)" d="m0 0h10v1l-10 2-8 5-13 10-2 1 2-4 10-9 8-5z" fill="#47D9B3"/>
<path transform="translate(861,1133)" d="m0 0 2 3 1 4 2 1 1-4v16h-3l-3-11z" fill="#5BB535"/>
<path transform="translate(734,1030)" d="m0 0h7l-1 2-23 5h-6v-2z" fill="#73C21A"/>
<path transform="translate(604,537)" d="m0 0h21l-3 2-9 1h-18l-7-1v-1z" fill="#012F0C"/>
<path transform="translate(532,516)" d="m0 0 2 3-10 11-4 2-4-1 13-12z" fill="#012F11"/>
<path transform="translate(712,439)" d="m0 0h2l-1 3-5 5-6 9-5 13-2-1 1-6 6-12 9-10z" fill="#44DAB7"/>
<path transform="translate(1099,881)" d="m0 0h10l-3 2-10 3-7 2h-5l1-3 10-3z" fill="#B6CBA3"/>
<path transform="translate(441,842)" d="m0 0h2v7l1 2-1 2-6 2-1-2v-6z" fill="#A6E135"/>
<path transform="translate(592,817)" d="m0 0h5l-3 3-19 5h-6l3-3z" fill="#9DDC32"/>
<path transform="translate(1120,322)" d="m0 0 2 1-3 5h-2l-1 7 4 2 6 2v1h-7l-6-5-2-5h2v-3l5-4z" fill="#ABE536"/>
<path transform="translate(750,1336)" d="m0 0h40v1l-13 2h-13l-3-1-11-1z" fill="#CAD4AF"/>
<path transform="translate(379,859)" d="m0 0m-1 1m-1 1 1 3-6 7-2 4v14l-2-2-1-3v-10l6-10z" fill="#43DAB7"/>
<path transform="translate(968,715)" d="m0 0h1l-1 8-5 19-1 2-3 1h-7l2-2 6-2 3-10z" fill="#96D832"/>
<path transform="translate(1230,536)" d="m0 0h3l-1 6-2 6h-2l-2-4-5 1h-3l8-6z" fill="#CBDAB9"/>
<path transform="translate(778,1259)" d="m0 0 3 1h21l-1 3-2 1h-17l-4-3z" fill="#B9D7BB"/>
<path transform="translate(698,1205)" d="m0 0 4 2 4 6v7l-4 5-6 4-7 1 1-2 8-3 5-6-1-7-4-5z" fill="#3BD7B5"/>
<path transform="translate(628,1008)" d="m0 0 3 3 5 11 13-1-1 3-12 2-5-7-3-7z" fill="#E9EFDE"/>
<path transform="translate(310,842)" d="m0 0h7l-3 2-19 6-8 1v-2l18-6z" fill="#012F10"/>
<path transform="translate(975,581)" d="m0 0 1 4-7 19-2-1 1-7 4-11z" fill="#F5F9E3"/>
<path transform="translate(731,435)" d="m0 0 5 1 8 7 7 11v4h-2l-7-12-6-7-5-2z" fill="#53D8AC"/>
<path transform="translate(1105,330)" d="m0 0 5 5 1 3 6 1 18 1-1 2h-14l-10-3-5-4-1-4z" fill="#4BA936"/>
<path transform="translate(1014,254)" d="m0 0 7 6 4 5 2 5 1 14h-2l-2-12-6-11-4-5z" fill="#7BE1C2"/>
<path transform="translate(672,1043)" d="m0 0h4v2l-21 5-12 1 4-3z" fill="#60B814"/>
<path transform="translate(824,435)" d="m0 0 3 1 4 11 2 10-2 2-5-13-2-1z" fill="#12C583"/>
<path transform="translate(1181,966)" d="m0 0 1 3-5 11-1 4 9 1v1h-13l3-10 5-9z" fill="#C0CF9E"/>
<path transform="translate(334,939)" d="m0 0m-2 1 2 1-6 8-8 7-8 8-2-1 15-16z" fill="#42D9B3"/>
<path transform="translate(896,921)" d="m0 0h1l1 16 1 4-1 24h-1l-1-10z" fill="#B6D3B7"/>
<path transform="translate(657,803)" d="m0 0h30l-3 2-7 1h-9l-10-1z" fill="#013013"/>
<path transform="translate(722,729)" d="m0 0h1l-1 11-5 9-4 1 2-5 2-4 2-8z" fill="#F5F9E2"/>
<path transform="translate(232,970)" d="m0 0 5 1 2 4v10l-7 6-7 1 3-3 6-3 2-3v-8z" fill="#48DCBA"/>
<path transform="translate(723,959)" d="m0 0h1l1 39-2 7h-1z" fill="#B8D3B4"/>
<path transform="translate(723,736)" d="m0 0 1 3-6 12-7 7-4 3-3-1 8-7 3-4h2l1-4z" fill="#1E5727"/>
<path transform="translate(586,354)" d="m0 0 1 3-4 11-5 20h-2l1-8 6-21z" fill="#E9F0D6"/>
<path transform="translate(796,327)" d="m0 0 3 1 7 19v5h-2l-8-22z" fill="#043312"/>
<path transform="translate(627,1122)" d="m0 0 1 3-7 16-4 11h-1v-7l5-12z" fill="#012F11"/>
<path transform="translate(492,1115)" d="m0 0 2 1 6 21v9l-2-1-2-10-4-14z" fill="#A4DA45"/>
<path transform="translate(278,967)" d="m0 0v3l-18 18-6 7-2-2z" fill="#4CDDBB"/>
<path transform="translate(304,863)" d="m0 0h3v2l-16 8-7 5-2-1 5-5 10-6z" fill="#45DAB7"/>
<path transform="translate(565,445)" d="m0 0h1l1 16v18h-2l-1-12v-11z" fill="#012F0D"/>
<path transform="translate(902,1101)" d="m0 0h2l-1 4-9 14-2 4h-2l-1 2 1-5 5-9z" fill="#013014"/>
<path transform="translate(1041,965)" d="m0 0 3 1 1 2-13 4-5-1v-3z" fill="#67B61F"/>
<path transform="translate(356,922)" d="m0 0m-2 1h2l-2 4-11 8-9 8-2-1 4-5 11-9z" fill="#48DBB7"/>
<path transform="translate(1276,749)" d="m0 0h2l-1 3-17 10-7 4 2-4 19-12z" fill="#012F10"/>
<path transform="translate(1029,700)" d="m0 0h11l3 5 1 5h-3l-3-6-11-1z" fill="#012F0E"/>
<path transform="translate(957,641)" d="m0 0 1 2-8 23-2 2v-7l4-10 3-9z" fill="#80C927"/>
<path transform="translate(399,455)" d="m0 0h8l14 6 8 6-1 2-14-8-11-4z" fill="#42D9B7"/>
<path transform="translate(912,912)" d="m0 0h13l-1 5h-2l-1-2-18 2 3-3z" fill="#B5C99F"/>
<path transform="translate(922,736)" d="m0 0 1 2-3 6-3 4h-2v6l-3 2h-3v-6h4l2-5 5-5z" fill="#CFDEB2"/>
<path transform="translate(401,565)" d="m0 0h1l2 11-1 4-3-3v-2l-3-1-2-6z" fill="#CBD8B8"/>
<path transform="translate(777,480)" d="m0 0 1 4-1 3v8l26 1v1l-29 1v-9z" fill="#46DAB5"/>
<path transform="translate(460,328)" d="m0 0 4 1 26 2v1h-11l-3-1v2h-8l-8-2z" fill="#C9E0C6"/>
<path transform="translate(335,978)" d="m0 0h9v1l-10 3-2 4-1 16-2-3v-14l4-6z" fill="#43DAB8"/>
<path transform="translate(217,960)" d="m0 0 1 3-1 3 12 1 5 2v1l-19-1-1-5 1-3z" fill="#4CDCBA"/>
<path transform="translate(1291,497)" d="m0 0 5 2 5 5 2 5v13l-3 8-2 1 3-12-1-11-4-6z" fill="#DFE3CF"/>
<path transform="translate(1086,386)" d="m0 0 6 1 12 6 7 7 1 5-3-3-6-7-12-5-6-2z" fill="#013013"/>
<path transform="translate(674,1040)" d="m0 0m-4 1h4v2l-15 4h-10l1-2z" fill="#012F10"/>
<path transform="translate(234,733)" d="m0 0h15l6 1-2 2h-25l2-2z" fill="#012F0F"/>
<path transform="translate(465,307)" d="m0 0h29l5 6v8l-2 2v-11l-4-2v-2h-28z" fill="#B8D5B9"/>
<path transform="translate(261,1145)" d="m0 0 2 1-4 3-5 3-1 2v9l5 6-4-1-4-4v-10l4-6z" fill="#DADFC6"/>
<path transform="translate(1150 1e3)" d="m0 0 3 3 4 8 33 1v1h-34l-4-4z" fill="#012F0E"/>
<path transform="translate(1315,827)" d="m0 0 7 1v2l-7 1-6 7-2 5h-1v-6l6-8z" fill="#012F12"/>
<path transform="translate(725,707)" d="m0 0h1l1 21-2 11-3-1 2-11z" fill="#58A71D"/>
<path transform="translate(507,685)" d="m0 0 13 1v1l-12 1-2 1-14 1-1-2z" fill="#012F10"/>
<path transform="translate(1272,517)" d="m0 0h7 3v7l-9 1 2-3-2-1v-2l-2-1z" fill="#C6D9B7"/>
<path transform="translate(407,381)" d="m0 0 4 1v2l-19 5-6 2v-2l11-5z" fill="#EAF0DE"/>
<path transform="translate(661,348)" d="m0 0v3l-10 11-9 11h-2l2-4 8-9 2-4 8-7z" fill="#E9EEDA"/>
<path transform="translate(1074,1174)" d="m0 0h1v7l-2 11 3 3 3 2-9-1-1-3 4-17z" fill="#48D8B0"/>
<path transform="translate(559,577)" d="m0 0 2 1-9 7-13 6-5 1-2-2 16-6z" fill="#8CD02C"/>
<path transform="translate(916,561)" d="m0 0m-4 1 7 1-4 2-17 4h-2l1-3z" fill="#EEF4DC"/>
<path transform="translate(856,507)" d="m0 0 2 1-11 16-4 4v-3l6-10z" fill="#012F10"/>
<path transform="translate(690,1205)" d="m0 0 2 1-7 4-13 2h-13v-1l10-1 2-1 13-2z" fill="#35D5B3"/>
<path transform="translate(970,904)" d="m0 0h5l-1 2 4 14 1 4-4-4-4-7z" fill="#CBDAB9"/>
<path transform="translate(1286,793)" d="m0 0 2 2-16 15-6 6-2-1 15-15 5-6z" fill="#012F0F"/>
<path transform="translate(375,504)" d="m0 0h2l11 24 1 5-4-4-5-12-5-10z" fill="#E1E7CF"/>
<path transform="translate(1052,443)" d="m0 0h1v7l-2 7-5-2-8-6 3-1 8 4z" fill="#E9EEDB"/>
<path transform="translate(1133,316)" d="m0 0 2 3 2 9v13l-2-3-2-7z" fill="#B4CF84"/>
<path transform="translate(321,1106)" d="m0 0h33v1l-32 1-3 4-2 8h-1v-9z" fill="#C5C5A4"/>
<path transform="translate(558,1094)" d="m0 0h4v3l-10 3h-5l1-4 4-1z" fill="#ABE536"/>
<path transform="translate(280,902)" d="m0 0 5 2 8 6 2 3v7l-5 5-3-1 5-4 1-5-3-5-10-6z" fill="#41D9B7"/>
<path transform="translate(1094,898)" d="m0 0 2 2-16 4-8 1h-3v-2l5-2 19-2z" fill="#CBD9B8"/>
<path transform="translate(336,454)" d="m0 0 10 1 3 3-1 3-4-3-11-1-7 1-1-2z" fill="#41D9B7"/>
<path transform="translate(317,401)" d="m0 0 8 1 11 6 8 8 3 5-4-2-7-8-10-6-9-3z" fill="#3CD7AE"/>
<path transform="translate(722,1030)" d="m0 0m-7 1h7v2l-8 2-6 1h-8l1-2z" fill="#012F10"/>
<path transform="translate(370,886)" d="m0 0 2 3v4l-14 7-5 3 2-4 8-5 3-2h3z" fill="#40D9B6"/>
<path transform="translate(410,771)" d="m0 0h1v22l-3 4 1-25z" fill="#012F10"/>
<path transform="translate(1165,386)" d="m0 0h14l4 2v1h-20l-1-2z" fill="#013012"/>
<path transform="translate(1131,343)" d="m0 0h3l1 4-6 7h-5l4-4v-3l-2-3z" fill="#04340F"/>
<path transform="translate(1033,898)" d="m0 0h1v44h-6l4-4z" fill="#F9FAED"/>
<path transform="translate(398,676)" d="m0 0 5 2 5 1 1-2v10l-4-1-7-9z" fill="#9ED4AC"/>
<path transform="translate(425,571)" d="m0 0 2 3 5 16 2 7-1 4-8-25z" fill="#EAF1DB"/>
<path transform="translate(803,349)" d="m0 0 2 3 8 15 8 7-2 2-9-9-8-15z" fill="#40D6AC"/>
<path transform="translate(599,1210)" d="m0 0h1l2 8 9 8 9 3-2 2-5-1-9-6-5-6-1-4z" fill="#3BD7B5"/>
<path transform="translate(500,1141)" d="m0 0 2 3v4h-22v-3h18l2 1z" fill="#C3D3AE"/>
<path transform="translate(226,940)" d="m0 0v3l-7 17-3 1 1-5 6-14z" fill="#45DAB8"/>
<path transform="translate(1267,867)" d="m0 0 4 1-13 5-7 1h-14v-1l13-1z" fill="#012F10"/>
<path transform="translate(471,844)" d="m0 0 3 1-8 3-10 2h-6l1-2 12-3z" fill="#9ADA32"/>
<path transform="translate(268,795)" d="m0 0 5 2 11 8 2 3-2 1-16-12z" fill="#012F11"/>
<path transform="translate(447,760)" d="m0 0h1l1 14v17l-3-4-1-4 1-5z" fill="#59A920"/>
<path transform="translate(1222,685)" d="m0 0h9l11 4v1l-20-2z" fill="#0B3D14"/>
<path transform="translate(652,1114)" d="m0 0 2 2-3 8h-7l-3-3 8-4z" fill="#58A71E"/>
<path transform="translate(695,1072)" d="m0 0h6l1 2-7 4-6-1-2-1v-2z" fill="#439D2D"/>
<path transform="translate(859,926)" d="m0 0h2v26l-2-2-1-22z" fill="#CCDABA"/>
<path transform="translate(378,558)" d="m0 0 14 8 5 5 1 2-4-2-10-6-7-5z" fill="#E8EFD9"/>
<path transform="translate(759,1054)" d="m0 0h10l-4 2-10 2h-9l3-3z" fill="#013013"/>
<path transform="translate(804,454)" d="m0 0h3l5 16-1 4v-2h-2l-5-15z" fill="#ACD08C"/>
<path transform="translate(1148,391)" d="m0 0h2l-1 3-6 4-4 5v3l5 1v2h-5l-2-2v-6l6-7z" fill="#012F12"/>
<path transform="translate(537,270)" d="m0 0 3 1-6 2-2 4-9 9v-3l2-5 10-7z" fill="#7BDDC0"/>
<path transform="translate(774,1197)" d="m0 0 5 4 6 9 2 2-5-1-4-5-4-6-8-1v-1z" fill="#3BD7B5"/>
<path transform="translate(1186,1009)" d="m0 0h6l2 2-1 3-4 2h-8l1-2 3-1z" fill="#B4D084"/>
<path transform="translate(1348,758)" d="m0 0 1 3-6 7-8 7-2-1 6-7h2l1-3h2l2-4z" fill="#012F0F"/>
<path transform="translate(290,590)" d="m0 0 4 1 10 11 7 8h-3l-8-8v-2h-2l-6-8-3 2z" fill="#3DD7B3"/>
<path transform="translate(371,581)" d="m0 0 5 1 8 5 1 3-6-1-8-6z" fill="#B7D296"/>
<path transform="translate(681,1090)" d="m0 0h3l-1 5-4 8-3 1 2-5 1-5-7-2v-1h7z" fill="#69BB16"/>
<path transform="translate(659,1017)" d="m0 0h6l-4 2-21 4-5-1-1-4 3 2h7z" fill="#CCDAB9"/>
<path transform="translate(988,940)" d="m0 0 4 5 1 3h6l7-2 4 1-5 2-7 2h-5l-5-8z" fill="#E2E9D4"/>
<path transform="translate(219,789)" d="m0 0 3 1 10 16-2 2-1-4h-2l-8-12z" fill="#013017"/>
<path transform="translate(1188,755)" d="m0 0 3 1 5 16-1 5-2-4-5-16z" fill="#62B715"/>
<path transform="translate(1261,733)" d="m0 0 3 4-17 10-2 1 2-4 8-5h2l2-4z" fill="#55A620"/>
<path transform="translate(1304,675)" d="m0 0 4 1 6 6v12l-5 5 2-5 1-9-4-6-4-2z" fill="#E5EBD8"/>
<path transform="translate(495,591)" d="m0 0 4 1 1 7v10l-2 7-1-3v-19l-3-2z" fill="#95D430"/>
<path transform="translate(931,1006)" d="m0 0 2 1v19l-2-3-1-2v-11z" fill="#12C589"/>
<path transform="translate(502,776)" d="m0 0h9l-4 2-13 3h-8l2-2z" fill="#A1DE33"/>
<path transform="translate(1268,734)" d="m0 0 4 1-22 12v-3z" fill="#013015"/>
<path transform="translate(545,648)" d="m0 0 9 1 3 2-1 2h-2v-2l-30-1v-1z" fill="#E1EACD"/>
<path transform="translate(1014,626)" d="m0 0 3 1 6 15-2 4-7-17z" fill="#012F11"/>
<path transform="translate(1269,527)" d="m0 0h5l-1 5-5 4-2-1 1-3-2-1v-2z" fill="#12C583"/>
<path transform="translate(347,511)" d="m0 0 3 3-1 5-4 8-3 3-9 1v-1l9-3 3-5z" fill="#D9E3C6"/>
<path transform="translate(946,1230)" d="m0 0h5l-2 4-7 8-4 2 6-7 2-5h-8v-1z" fill="#4ADCBB"/>
<path transform="translate(199,943)" d="m0 0h1l-1 8-5 18-3 1 2-9 3-8z" fill="#E3E8D6"/>
<path transform="translate(693,763)" d="m0 0h6v2l-8 2h-17v-2h12z" fill="#5AA720"/>
<path transform="translate(1333,754)" d="m0 0 3 1-10 9-5 4-2-1 6-7z" fill="#012F11"/>
<path transform="translate(723,457)" d="m0 0 4 1 10 14h-3l-8-11h-2l-3 4 1-6z" fill="#3CD6AE"/>
<path transform="translate(383,455)" d="m0 0h6l-3 2-5 2-1 5 5 1v1h-7l-1-1v-6l3-3z" fill="#50DBB6"/>
<path transform="translate(1043,704)" d="m0 0 4 5 6 15-1 3-2-3-7-17z" fill="#94D52F"/>
<path transform="translate(464,551)" d="m0 0 4 2 8 7 6 3 1 3-5-2-6-4-6-5z" fill="#91D32E"/>
<path transform="translate(529,1068)" d="m0 0m-6 1h6v2l-11 3h-6l3-3z" fill="#012F0F"/>
<path transform="translate(1253,763)" d="m0 0m-1 1 1 3-15 12v-3l6-6h2v-2z" fill="#063712"/>
<path transform="translate(347,719)" d="m0 0 5 2 6 8 1 6h-2l-5-10-5-4z" fill="#BEC89A"/>
<path transform="translate(535,570)" d="m0 0m-3 1 5 1-2 2-6 2-2 1h-7v-2z" fill="#023119"/>
<path transform="translate(585,539)" d="m0 0h10l5 1v1h-15l-2 5-3 1 1-4z" fill="#023119"/>
<path transform="translate(427,520)" d="m0 0 2 2 4 15 1 7-2-2-5-14z" fill="#E3E6CC"/>
<path transform="translate(1276,524)" d="m0 0h5l-6 7-2-2-4-1-4 1v-2z" fill="#23CCA8"/>
<path transform="translate(460,508)" d="m0 0h1v19l-2 7h-2l1-11 1-3z" fill="#CCDAB9"/>
<path transform="translate(648,447)" d="m0 0 4 2 7 10 2 4-1 3-8-13-4-2z" fill="#44D8B2"/>
<path transform="translate(454,395)" d="m0 0 1 3-6 11-2 9-2-2 1-6 7-14z" fill="#E7EDD3"/>
<path transform="translate(857,319)" d="m0 0 7 6 13 13-1 3-15-16-4-4z" fill="#E0E3CF"/>
<path transform="translate(1077,281)" d="m0 0 6 1 6 5-1 2-4-4h-13l-4 1v-2z" fill="#CDE0C8"/>
<path transform="translate(719,279)" d="m0 0 4 1-8 4-12 13v-3l7-9h2v-2z" fill="#DCE3CD"/>
<path transform="translate(518,1131)" d="m0 0h2l4 16h-2v-2h-2l-3-12z" fill="#013015"/>
<path transform="translate(1242,942)" d="m0 0 6 1 9 4-2 1-1 2-3-1v-2l-3 1-6-2zm1 1m5 2m4 1v2l2-1z" fill="#BFCA9D"/>
<path transform="translate(657,715)" d="m0 0h1v9h2l1 15-3-3-1-11z" fill="#013013"/>
<path transform="translate(647,585)" d="m0 0 3 1-1 2-9 2-9-1v-1z" fill="#013012"/>
<path transform="translate(989,547)" d="m0 0 4 1h-3l-2 6-5 14h-1l1-9 4-9z" fill="#73BE22"/>
<path transform="translate(669,1072)" d="m0 0 6 1-3 2-12 2h-5l3-3z" fill="#5FB515"/>
<path transform="translate(817,1013)" d="m0 0 4 1-2 2-17 2 3-3z" fill="#93D52E"/>
<path transform="translate(679,1008)" d="m0 0 3 1 2 7-7 2h-7l2-2 7-2 1-1z" fill="#E8EEDD"/>
<path transform="translate(1e3 980)" d="m0 0h2l4 5 5 6 6 5-1 3-11-11-5-6z" fill="#81C92E"/>
<path transform="translate(1064,903)" d="m0 0h1l-1 7-6 12-1-4 6-14z" fill="#BAD2B2"/>
<path transform="translate(294,748)" d="m0 0 3 1 6 13-1 3-3-2z" fill="#012F11"/>
<path transform="translate(1373,734)" d="m0 0 1 2h2l1 2v28h-1l-1-23z" fill="#C6C4A4"/>
<path transform="translate(1e3 596)" d="m0 0 3 3 4 12h-2l-3-7-4 1z" fill="#023220"/>
<path transform="translate(602,591)" d="m0 0m-4 1h4l-1 3-12 6 1-4z" fill="#6DBF19"/>
<path transform="translate(396,552)" d="m0 0 3 3 2 6v8l-3-4-3-10z" fill="#EEF2DC"/>
<path transform="translate(1028,284)" d="m0 0h16l4 3 1 3v11h-1l-1-10-3-4-3-1-13-1z" fill="#53E0BE"/>
<path transform="translate(592,1055)" d="m0 0h7v2l-13 3-4-1 2-2z" fill="#62B912"/>
<path transform="translate(924,962)" d="m0 0m-5 1h5l-3 3-15 3-3-1 3-2z" fill="#E9F0DE"/>
<path transform="translate(1078,930)" d="m0 0 9 1v1l-9 2-11-1 4-2z" fill="#CFDDBC"/>
<path transform="translate(757,725)" d="m0 0h1v12l-2 9-3 2 2-11z" fill="#9CDB32"/>
<path transform="translate(329,638)" d="m0 0 1 3-15 11-2-1 8-7z" fill="#44DAB7"/>
<path transform="translate(285,566)" d="m0 0 3 1-16 16 2-5z" fill="#99AE99"/>
<path transform="translate(1162,320)" d="m0 0h7l3 5 1 8-2 2-2-11-5-1-3-1z" fill="#DAE6CC"/>
<path transform="translate(725,956)" d="m0 0 3 1-2 3-1 30h-1v-33z" fill="#B4C89D"/>
<path transform="translate(802,799)" d="m0 0h2v30h-1v-26l-4-2z" fill="#FAFAF7"/>
<path transform="translate(300,679)" d="m0 0 4 2 14 14-1 2-12-12-5-4z" fill="#013016"/>
<path transform="translate(564,437)" d="m0 0h1v19h-2l-1-17z" fill="#02321E"/>
<path transform="translate(506,389)" d="m0 0h2l-2 5-9 7-2-1 9-10z" fill="#CCDAB9"/>
<path transform="translate(969,248)" d="m0 0 3 1-9 6-5 3-6 5 2-4 8-7z" fill="#A5DDC0"/>
<path transform="translate(869,1215)" d="m0 0h1v7l-4 5-8 4h-7v-1l10-3 7-6z" fill="#3DD8B6"/>
<path transform="translate(1082,1197)" d="m0 0 11 4 10 2v2l-8-1-12-4z" fill="#12C699"/>
<path transform="translate(431,1065)" d="m0 0 2 1-3 2-14 3-4-1 7-3z" fill="#E3E9D5"/>
<path transform="translate(989,940)" d="m0 0 7 6 13-1-3 2-7 2-6-1-4-6z" fill="#CCDAB9"/>
<path transform="translate(443,828)" d="m0 0h1v14l-6 3-2 2 1-4 2-5h3z" fill="#C6DAA7"/>
<path transform="translate(1335,733)" d="m0 0h9l6 2-1 2-20-2v-1z" fill="#012F0F"/>
<path transform="translate(374,715)" d="m0 0 3 4 3 5 2 8v5l-2-1-4-14-2-4z" fill="#8DD339"/>
<path transform="translate(739,479)" d="m0 0h2l6 14v3l-7-1 4-1-5-13z" fill="#42D8AF"/>
<path transform="translate(595,349)" d="m0 0 4 1 6 9 2 8-3-1-4-11-2-4-3-1z" fill="#EAF1DA"/>
<path transform="translate(422,312)" d="m0 0h9l2 3v8h-1l-1-8h-2v-2l-7 2-1 1-1 7h-1v-9z" fill="#68DEBD"/>
<path transform="translate(1114,1199)" d="m0 0 3 1 1 6h-11l-1-2h7v-2h2z" fill="#12C589"/>
<path transform="translate(526,1151)" d="m0 0 24 1v1l-13 1h-11z" fill="#92D431"/>
<path transform="translate(731,1028)" d="m0 0 8 1v1l-14 3h-3l1-3z" fill="#013013"/>
<path transform="translate(492,1022)" d="m0 0h8l-1 2-10 2h-6v-2z" fill="#B3CC9E"/>
<path transform="translate(440,1010)" d="m0 0h1v10l-2 3v7l-3-1v-9l2-1z" fill="#CADEC1"/>
<path transform="translate(1195,950)" d="m0 0 2 1-4 5-6 5-4 6-2-2 9-10z" fill="#AEB776"/>
<path transform="translate(575,782)" d="m0 0h3l11 16h-3l-11-15z" fill="#95D632"/>
<path transform="translate(864,564)" d="m0 0h5l-3 1-1 4-4 2-3-3 1-3z" fill="#F4F4EE"/>
<path transform="translate(752,460)" d="m0 0 3 4 2 2 3-4-1 8-1 3h-2l-4-10z" fill="#A7D4A9"/>
<path transform="translate(1092,405)" d="m0 0h13l2 1v2h-9l-7-1z" fill="#012F11"/>
<path transform="translate(418,315)" d="m0 0h1l2 10 2 2h7l-1 3h-9l-2-6z" fill="#C8DFC6"/>
<path transform="translate(858,1134)" d="m0 0h2l3 13v5l-3-4-2-10z" fill="#012F10"/>
<path transform="translate(1089,1099)" d="m0 0 4 4 7 13-1 3-3-6v-2h-2l-5-10z" fill="#012F0C"/>
<path transform="translate(898,916)" d="m0 0h4v2h-2l-2 20h-1v-21z" fill="#B5C9A0"/>
<path transform="translate(353,832)" d="m0 0h11l-1 2-4 1h-14v-1z" fill="#012F0D"/>
<path transform="translate(264,774)" d="m0 0 4 2 9 6-2 2-11-7z" fill="#012F11"/>
<path transform="translate(359,750)" d="m0 0 1 2-6 9-3 2-3-1 4-4h2l2-5z" fill="#AFBE79"/>
<path transform="translate(531,614)" d="m0 0h18l7 2 1 2-13-2-13-1z" fill="#012F10"/>
<path transform="translate(576,558)" d="m0 0h2l-2 4-7 8-7 6 2-4 7-7z" fill="#88CD30"/>
<path transform="translate(580,547)" d="m0 0h2l-2 6-4 6-2-2 4-8z" fill="#012F11"/>
<path transform="translate(1130,505)" d="m0 0 3 1-4 4-3 14h-1v-11l3-6z" fill="#B9DFC3"/>
<path transform="translate(835,480)" d="m0 0h1l3 12 4 2-6 2-2-6z" fill="#41D9B6"/>
<path transform="translate(361,479)" d="m0 0 4 4 1 5-4-4-5 5 1-6z" fill="#EAEFDA"/>
<path transform="translate(1142,447)" d="m0 0 7 4 11 11h-3l-7-7-8-6z" fill="#ECF1DF"/>
<path transform="translate(766,432)" d="m0 0 2 1-1 6-3 8h-2v-5h2l1-7z" fill="#A3D26F"/>
<path transform="translate(934,1246)" d="m0 0h2l-2 4-7 7-5 2 6-7z" fill="#40D9B7"/>
<path transform="translate(514,1105)" d="m0 0 1 3h2l2 10v5l-3-3-2-11z" fill="#92D52D"/>
<path transform="translate(428,1011)" d="m0 0h8l-4 2-12 4h-2v-2z" fill="#B7CCA5"/>
<path transform="translate(1212,819)" d="m0 0 3 1 6 13v2h-2l-7-14z" fill="#91D432"/>
<path transform="translate(1237,723)" d="m0 0h2l-1 5-4 6-3 3-2-1v-2l5-5z" fill="#60B714"/>
<path transform="translate(1298,659)" d="m0 0 2 1-5 4h-9l-8-2v-1h16z" fill="#F1F6E1"/>
<path transform="translate(610,589)" d="m0 0 9 1v1l-17 3 1-3z" fill="#61B814"/>
<path transform="translate(768,560)" d="m0 0 9 1v1l-13 3v-2l-4-1z" fill="#012F0E"/>
<path transform="translate(793,349)" d="m0 0h9v3l-14 1 2-3z" fill="#4EBB5F"/>
<path transform="translate(766,1196)" d="m0 0h7l1 2h-8v2l-4 4-2 3-1-3z" fill="#4BDDBB"/>
<path transform="translate(769,1119)" d="m0 0 6 2 7 5-3 1-8-5-11-1v-1z" fill="#013014"/>
<path transform="translate(765,1055)" d="m0 0h13l3 3-16-1z" fill="#012F0E"/>
<path transform="translate(584 1e3)" d="m0 0h7l3 2-13 2-4-2z" fill="#D2DEBF"/>
<path transform="translate(1052,929)" d="m0 0 4 2v3h5v1l-10 1-1-3z" fill="#CCDAB9"/>
<path transform="translate(964,619)" d="m0 0 1 2-5 15-2 2 1-8 4-10z" fill="#77C51D"/>
<path transform="translate(301,626)" d="m0 0 2 2-1 5-2 2-3-3v-4z" fill="#12C8A7"/>
<path transform="translate(499,609)" d="m0 0h1v9l-10 2-1-2 2-2 7-1z" fill="#C7D7B1"/>
<path transform="translate(810,547)" d="m0 0 1 4-6 5-8 1 5-4 6-1z" fill="#012F0E"/>
<path transform="translate(610,384)" d="m0 0h2l2 10 2 4h-4l-2-6z" fill="#F1F5E1"/>
<path transform="translate(1197,373)" d="m0 0 5 2 3 4v12h-1l-1-10-4-4-5-2z" fill="#D1DBBE"/>
<path transform="translate(1017,1145)" d="m0 0 2 2-6 8-4 1-3-3 1-2 6 2 2-5z" fill="#21CDA7"/>
<path transform="translate(603,1130)" d="m0 0 1 4-5 14-2-1 2-8z" fill="#61B916"/>
<path transform="translate(277,1046)" d="m0 0 1 4-17 1 6-3 9-1z" fill="#45DAB7"/>
<path transform="translate(407,814)" d="m0 0h1v15l-1 2-5-1 3-2z" fill="#A7CC73"/>
<path transform="translate(1172,653)" d="m0 0h2v2h-2l-1 8h-2v3h-2l-1 2 1-6 4-8z" fill="#C4DBBE"/>
<path transform="translate(460,550)" d="m0 0 5 2 4 5 2 1-1 3-4-2-6-7z" fill="#012F10"/>
<path transform="translate(514,489)" d="m0 0 2 3 2 12v5l-3-3z" fill="#012F0C"/>
<path transform="translate(1089,289)" d="m0 0 2 1v9l-8 7v-3l6-7z" fill="#C4DEC3"/>
<path transform="translate(1118,1159)" d="m0 0 5 5 1 3v7l-2-3-4-7z" fill="#012F12"/>
<path transform="translate(861,1133)" d="m0 0 2 3 1 4 2 1v5h-3l-2-4z" fill="#A5E135"/>
<path transform="translate(282,1104)" d="m0 0 6 1 4 5 1 7-2 1-3-9-6-4z" fill="#E4EAD3"/>
<path transform="translate(423,1094)" d="m0 0 4 1-11 4h-6l3-3z" fill="#C7D7B0"/>
<path transform="translate(731,1056)" d="m0 0 6 1-3 2-7 2h-5l3-3z" fill="#60B714"/>
<path transform="translate(550,1038)" d="m0 0 1 3-3 3-13 1 4-3 8-1z" fill="#E1ECD8"/>
<path transform="translate(1153,886)" d="m0 0h8l2 4h-3v-2l-14 2 4-3z" fill="#C3D7B6"/>
<path transform="translate(619,780)" d="m0 0h3l7 8 3 3-1 2-10-9z" fill="#063724"/>
<path transform="translate(1221,767)" d="m0 0 3 1-4 5-7 6-2-1z" fill="#012F12"/>
<path transform="translate(365,704)" d="m0 0 4 2 6 8-2 2-5-6v-2h-2z" fill="#53BB58"/>
<path transform="translate(361,573)" d="m0 0 9 3 6 4-3 1-12-6z" fill="#043411"/>
<path transform="translate(454,1059)" d="m0 0h3v2l-11 3h-6l4-2z" fill="#E9EEDD"/>
<path transform="translate(578,1056)" d="m0 0m-2 1 4 2-12 4h-2l1-3z" fill="#013013"/>
<path transform="translate(337,1022)" d="m0 0 2 4 1 5-7 6v-3l3-3z" fill="#3CD7B2"/>
<path transform="translate(1175,979)" d="m0 0h1v5l9 1v1h-13l2-6z" fill="#C9D4B3"/>
<path transform="translate(1077,955)" d="m0 0h5v2l-7 2h-7l1-2z" fill="#012F0F"/>
<path transform="translate(1163,892)" d="m0 0 4 5 4 9v2h-2l-6-13z" fill="#EAF1E1"/>
<path transform="translate(1240,773)" d="m0 0m-1 1m-1 1m-1 1m-1 1 1 3-10 9v-3l6-7z" fill="#012F0E"/>
<path transform="translate(447,665)" d="m0 0h3l-1 14-2 2z" fill="#65B815"/>
<path transform="translate(1058,612)" d="m0 0h2l4 11v6l-2-3-4-12z" fill="#013013"/>
<path transform="translate(1153,404)" d="m0 0h7l-2 2-6 2h-7l3-3z" fill="#012F10"/>
<path transform="translate(989,1178)" d="m0 0 1 2-7 11-2-2 7-10z" fill="#46DBB9"/>
<path transform="translate(703,1097)" d="m0 0 2 2-7 11-2-1 2-6 1-2 3-1z" fill="#013018"/>
<path transform="translate(720,1060)" d="m0 0m-2 1h2l-1 3-9 5-3-1 5-4z" fill="#61B913"/>
<path transform="translate(604,1053)" d="m0 0h17v1l-15 2h-5z" fill="#64BB10"/>
<path transform="translate(1108,1019)" d="m0 0m-4 1 4 1 2 2-12 2 2-1 1-3z" fill="#013018"/>
<path transform="translate(527,1015)" d="m0 0 1 3-4 6-3 6-2-1 6-13z" fill="#C0D7BA"/>
<path transform="translate(252,994)" d="m0 0v3l-8 10-2-2 4-6z" fill="#46DBB8"/>
<path transform="translate(937,985)" d="m0 0 4 1-2 2h-3l-1 9-2-2 1-8z" fill="#12C690"/>
<path transform="translate(232,929)" d="m0 0v3l-4 8-4 2 2-6 3-5z" fill="#42D9B8"/>
<path transform="translate(1324,825)" d="m0 0h5l-2 4-3 1-8-3v-1z" fill="#60B415"/>
<path transform="translate(917,729)" d="m0 0 1 4-3 8h-2l1-7 1-4z" fill="#E7E9D6"/>
<path transform="translate(540,694)" d="m0 0 1 3h2v7l-2 5h-1z" fill="#012F0C"/>
<path transform="translate(1275,627)" d="m0 0h5l6 8v4h-2l-3-7-6-4z" fill="#44DAB8"/>
<path transform="translate(554,551)" d="m0 0h2l-2 4-7 9-3 1 2-4 6-7z" fill="#8FD32E"/>
<path transform="translate(810,472)" d="m0 0 3 1 3 9v6l-2-3-4-10z" fill="#4AD9AF"/>
<path transform="translate(712,439)" d="m0 0h2l-1 3-10 10v-3l7-8z" fill="#42D9B5"/>
<path transform="translate(818,425)" d="m0 0 3 4 3 5 1 8h-2l-5-14z" fill="#33D4B1"/>
<path transform="translate(841,980)" d="m0 0h10l-4 2-8 2h-4v-2z" fill="#DDE4CE"/>
<path transform="translate(335,913)" d="m0 0 1 3-10 8-2-1z" fill="#41D9B5"/>
<path transform="translate(368,873)" d="m0 0h1l1 16-2-2-1-3v-10z" fill="#4CDDBB"/>
<path transform="translate(434,835)" d="m0 0h1l2 20h-3z" fill="#CBD9B7"/>
<path transform="translate(315,834)" d="m0 0 5 4v2l-6 1-1-2z" fill="#81C92A"/>
<path transform="translate(1218,793)" d="m0 0m-1 1m-1 1m-1 1m-1 1 1 3-7 6-3-1 4-4h2v-2z" fill="#063711"/>
<path transform="translate(252,716)" d="m0 0h13l6 2v1h-8l-11-2z" fill="#DBE1CA"/>
<path transform="translate(1114,682)" d="m0 0 5 1v9l-3-3z" fill="#D2DEC3"/>
<path transform="translate(485,618)" d="m0 0h4v2l-7 2-8-1v-1z" fill="#AFE052"/>
<path transform="translate(306,610)" d="m0 0 6 4 3 3v2h-2v-2l-4 1v-2h-2z" fill="#12C587"/>
<path transform="translate(1162,593)" d="m0 0 5 1 2 3-8 8v-3l3-3 1-4-3-1z" fill="#EBF1DA"/>
<path transform="translate(802,453)" d="m0 0h2l3 11h-2v-2l-4-1z" fill="#67BE0E"/>
<path transform="translate(567,393)" d="m0 0 4 5h2l2-4-1 10h-2l-5-8z" fill="#E6EED5"/>
<path transform="translate(1269,831)" d="m0 0 2 1-7 7-4 5h-2l2-4z" fill="#89D027"/>
<path transform="translate(1079,468)" d="m0 0 3 1-4 2 1 5 1 2-4-2-3-2 2-4z" fill="#E3EDD6"/>
<path transform="translate(824,435)" d="m0 0 3 1 1 7-2 3-2-1z" fill="#12C692"/>
<path transform="translate(793,430)" d="m0 0 4 2 5 8v2h-2l-3-5v-2l-4-2z" fill="#97D641"/>
<path transform="translate(784,349)" d="m0 0 3 3-2 5-6 5-4-1 6-3 2-3z" fill="#44D4A6"/>
<path transform="translate(380,1113)" d="m0 0 1 2h3l1 3-1 3-4 1z" fill="#63B812"/>
<path transform="translate(547,1064)" d="m0 0 9 1v1l-13 2 1-3z" fill="#013014"/>
<path transform="translate(299,1041)" d="m0 0h2v4h7l-1 2-7 1-1-1z" fill="#52DBB4"/>
<path transform="translate(232,970)" d="m0 0 5 1 2 4v7l-2 1-2-10z" fill="#39D6B3"/>
<path transform="translate(302,943)" d="m0 0h2l-2 4-8 7-3 2 2-4z" fill="#49DCBA"/>
<path transform="translate(317,745)" d="m0 0h1l2 9 5 8-4-2-4-6z" fill="#B4C485"/>
<path transform="translate(723,736)" d="m0 0 1 3-5 10h-2l1-4z" fill="#2A6126"/>
<path transform="translate(1094,706)" d="m0 0 3 3 3 9h-6l2-1z" fill="#99D938"/>
<path transform="translate(984,706)" d="m0 0h4v2l-9 2h-6l2-2z" fill="#9EDB33"/>
<path transform="translate(1036,507)" d="m0 0 5 2 3 4-2 2v-2l-5-2-2-1z" fill="#013012"/>
<path transform="translate(848,488)" d="m0 0v3l-3 3-7-2 1-2 7-1z" fill="#1BCBA8"/>
<path transform="translate(1169,409)" d="m0 0 4 1-1 2 4 2 4 4-1 2-10-9z" fill="#DFEAD8"/>
<path transform="translate(407,399)" d="m0 0h8l3 2v3l-12-2z" fill="#12C7A2"/>
<path transform="translate(631,380)" d="m0 0h3l-2 4-6 6-2-1z" fill="#EDF2DC"/>
<path transform="translate(493,309)" d="m0 0 4 1 2 3v8l-2 2v-11l-4-2z" fill="#8ADDBF"/>
<path transform="translate(690,1205)" d="m0 0 2 1-7 4-8 1 4-3z" fill="#3AD7B5"/>
<path transform="translate(571,1006)" d="m0 0h10l-2 2-4 1h-7z" fill="#DDE8CE"/>
<path transform="translate(874,997)" d="m0 0h6v2l-8 2-5-1v-1z" fill="#012F0E"/>
<path transform="translate(339,853)" d="m0 0 4 1-3 2-10 1-1-2z" fill="#3DD7B4"/>
<path transform="translate(389,828)" d="m0 0 10 1 4 3-9-1-5-1z" fill="#012F10"/>
<path transform="translate(361,784)" d="m0 0h2l6 9v3l-8-8z" fill="#61B813"/>
<path transform="translate(351,700)" d="m0 0 6 1 9 5-1 2-14-7z" fill="#013013"/>
<path transform="translate(281,627)" d="m0 0h1l2 10 1 6-2 2-2-8z" fill="#22CEAA"/>
<path transform="translate(313,550)" d="m0 0h11v1l-14 3-4-1z" fill="#DAE0C8"/>
<path transform="translate(1051,525)" d="m0 0 2 2 3 6v6l-2-1-3-9z" fill="#D1DCBC"/>
<path transform="translate(816,486)" d="m0 0 2 4 1 7h-6l1-2h2l-1-7z" fill="#1DC9A1"/>
<path transform="translate(385,478)" d="m0 0h9v1h-7l1 9-3-4-1-5z" fill="#D7E1C6"/>
<path transform="translate(642,312)" d="m0 0 2 1v12l-2 3h-3l2-4 1-1z" fill="#C3DABE"/>
<path transform="translate(958,1127)" d="m0 0h3l7 11h-3z" fill="#5CB419"/>
<path transform="translate(237,1044)" d="m0 0 1 2-1 2 4 1 1 2-8-1-1-2z" fill="#4DD9B3"/>
<path transform="translate(576,741)" d="m0 0 3 1-7 8-2-2z" fill="#013014"/>
<path transform="translate(725,728)" d="m0 0h1v7l-2 4-2-1 1-8z" fill="#65AD28"/>
<path transform="translate(1120,674)" d="m0 0 1 4-2 5-5-1 1-4h3z" fill="#F1F6E0"/>
<path transform="translate(625,627)" d="m0 0 3 1-2 3-1 16h-1v-19z" fill="#5CAE19"/>
<path transform="translate(738,566)" d="m0 0 7 1-4 2-7 1-2-2z" fill="#013012"/>
<path transform="translate(1180,419)" d="m0 0 7 6 2 3-1 3-8-10z" fill="#F0F5EB"/>
<path transform="translate(1027,274)" d="m0 0h1l1 7 6 1-2 2h-5l-1-1z" fill="#D2E5CD"/>
</svg>
